<svg xmlns="http://www.w3.org/2000/svg" xmlns:xlink="http://www.w3.org/1999/xlink" width="500" zoomAndPan="magnify" viewBox="0 0 375 374.999991" height="500" preserveAspectRatio="xMidYMid meet" version="1.0"><defs><g/><linearGradient x1="0" gradientTransform="matrix(0.75, 0, 0, 0.75, 0.0000045, 0)" y1="250" x2="499.999979" gradientUnits="userSpaceOnUse" y2="250" id="3e5eea0e34"><stop stop-opacity="1" stop-color="rgb(0%, 43.099976%, 45.899963%)" offset="0"/><stop stop-opacity="1" stop-color="rgb(0.218201%, 43.237305%, 46.086121%)" offset="0.00390625"/><stop stop-opacity="1" stop-color="rgb(0.437927%, 43.374634%, 46.272278%)" offset="0.0078125"/><stop stop-opacity="1" stop-color="rgb(0.656128%, 43.511963%, 46.458435%)" offset="0.0117187"/><stop stop-opacity="1" stop-color="rgb(0.875854%, 43.650818%, 46.646118%)" offset="0.015625"/><stop stop-opacity="1" stop-color="rgb(1.094055%, 43.788147%, 46.832275%)" offset="0.0195312"/><stop stop-opacity="1" stop-color="rgb(1.313782%, 43.927002%, 47.019958%)" offset="0.0234375"/><stop stop-opacity="1" stop-color="rgb(1.531982%, 44.064331%, 47.206116%)" offset="0.0273438"/><stop stop-opacity="1" stop-color="rgb(1.751709%, 44.20166%, 47.392273%)" offset="0.03125"/><stop stop-opacity="1" stop-color="rgb(1.971436%, 44.338989%, 47.57843%)" offset="0.0351562"/><stop stop-opacity="1" stop-color="rgb(2.191162%, 44.477844%, 47.766113%)" offset="0.0390625"/><stop stop-opacity="1" stop-color="rgb(2.409363%, 44.615173%, 47.952271%)" offset="0.0429687"/><stop stop-opacity="1" stop-color="rgb(2.629089%, 44.754028%, 48.139954%)" offset="0.046875"/><stop stop-opacity="1" stop-color="rgb(2.84729%, 44.891357%, 48.326111%)" offset="0.0507812"/><stop stop-opacity="1" stop-color="rgb(3.067017%, 45.030212%, 48.513794%)" offset="0.0546875"/><stop stop-opacity="1" stop-color="rgb(3.285217%, 45.167542%, 48.699951%)" offset="0.0585938"/><stop stop-opacity="1" stop-color="rgb(3.504944%, 45.304871%, 48.886108%)" offset="0.0625"/><stop stop-opacity="1" stop-color="rgb(3.72467%, 45.4422%, 49.072266%)" offset="0.0664062"/><stop stop-opacity="1" stop-color="rgb(3.944397%, 45.581055%, 49.259949%)" offset="0.0703125"/><stop stop-opacity="1" stop-color="rgb(4.162598%, 45.718384%, 49.446106%)" offset="0.0742187"/><stop stop-opacity="1" stop-color="rgb(4.382324%, 45.857239%, 49.633789%)" offset="0.078125"/><stop stop-opacity="1" stop-color="rgb(4.600525%, 45.994568%, 49.819946%)" offset="0.0820312"/><stop stop-opacity="1" stop-color="rgb(4.820251%, 46.133423%, 50.007629%)" offset="0.0859375"/><stop stop-opacity="1" stop-color="rgb(5.038452%, 46.270752%, 50.193787%)" offset="0.0898437"/><stop stop-opacity="1" stop-color="rgb(5.258179%, 46.408081%, 50.379944%)" offset="0.09375"/><stop stop-opacity="1" stop-color="rgb(5.477905%, 46.54541%, 50.566101%)" offset="0.0976562"/><stop stop-opacity="1" stop-color="rgb(5.697632%, 46.684265%, 50.753784%)" offset="0.101562"/><stop stop-opacity="1" stop-color="rgb(5.915833%, 46.821594%, 50.939941%)" offset="0.105469"/><stop stop-opacity="1" stop-color="rgb(6.135559%, 46.960449%, 51.127625%)" offset="0.109375"/><stop stop-opacity="1" stop-color="rgb(6.35376%, 47.097778%, 51.313782%)" offset="0.113281"/><stop stop-opacity="1" stop-color="rgb(6.573486%, 47.236633%, 51.501465%)" offset="0.117188"/><stop stop-opacity="1" stop-color="rgb(6.791687%, 47.373962%, 51.687622%)" offset="0.121094"/><stop stop-opacity="1" stop-color="rgb(7.011414%, 47.511292%, 51.873779%)" offset="0.125"/><stop stop-opacity="1" stop-color="rgb(7.229614%, 47.648621%, 52.059937%)" offset="0.128906"/><stop stop-opacity="1" stop-color="rgb(7.449341%, 47.787476%, 52.24762%)" offset="0.132812"/><stop stop-opacity="1" stop-color="rgb(7.669067%, 47.924805%, 52.433777%)" offset="0.136719"/><stop stop-opacity="1" stop-color="rgb(7.888794%, 48.06366%, 52.62146%)" offset="0.140625"/><stop stop-opacity="1" stop-color="rgb(8.106995%, 48.200989%, 52.807617%)" offset="0.144531"/><stop stop-opacity="1" stop-color="rgb(8.326721%, 48.338318%, 52.9953%)" offset="0.148437"/><stop stop-opacity="1" stop-color="rgb(8.544922%, 48.475647%, 53.181458%)" offset="0.152344"/><stop stop-opacity="1" stop-color="rgb(8.764648%, 48.614502%, 53.367615%)" offset="0.15625"/><stop stop-opacity="1" stop-color="rgb(8.982849%, 48.751831%, 53.553772%)" offset="0.160156"/><stop stop-opacity="1" stop-color="rgb(9.202576%, 48.890686%, 53.741455%)" offset="0.164062"/><stop stop-opacity="1" stop-color="rgb(9.422302%, 49.028015%, 53.927612%)" offset="0.167969"/><stop stop-opacity="1" stop-color="rgb(9.642029%, 49.16687%, 54.115295%)" offset="0.171875"/><stop stop-opacity="1" stop-color="rgb(9.860229%, 49.304199%, 54.301453%)" offset="0.175781"/><stop stop-opacity="1" stop-color="rgb(10.079956%, 49.441528%, 54.48761%)" offset="0.179687"/><stop stop-opacity="1" stop-color="rgb(10.298157%, 49.578857%, 54.673767%)" offset="0.183594"/><stop stop-opacity="1" stop-color="rgb(10.517883%, 49.717712%, 54.86145%)" offset="0.1875"/><stop stop-opacity="1" stop-color="rgb(10.736084%, 49.855042%, 55.047607%)" offset="0.191406"/><stop stop-opacity="1" stop-color="rgb(10.955811%, 49.993896%, 55.235291%)" offset="0.195312"/><stop stop-opacity="1" stop-color="rgb(11.175537%, 50.131226%, 55.421448%)" offset="0.199219"/><stop stop-opacity="1" stop-color="rgb(11.395264%, 50.270081%, 55.609131%)" offset="0.203125"/><stop stop-opacity="1" stop-color="rgb(11.613464%, 50.40741%, 55.795288%)" offset="0.207031"/><stop stop-opacity="1" stop-color="rgb(11.833191%, 50.544739%, 55.981445%)" offset="0.210938"/><stop stop-opacity="1" stop-color="rgb(12.051392%, 50.682068%, 56.167603%)" offset="0.214844"/><stop stop-opacity="1" stop-color="rgb(12.271118%, 50.820923%, 56.355286%)" offset="0.21875"/><stop stop-opacity="1" stop-color="rgb(12.489319%, 50.958252%, 56.541443%)" offset="0.222656"/><stop stop-opacity="1" stop-color="rgb(12.709045%, 51.097107%, 56.729126%)" offset="0.226562"/><stop stop-opacity="1" stop-color="rgb(12.927246%, 51.234436%, 56.915283%)" offset="0.230469"/><stop stop-opacity="1" stop-color="rgb(13.146973%, 51.373291%, 57.102966%)" offset="0.234375"/><stop stop-opacity="1" stop-color="rgb(13.366699%, 51.51062%, 57.289124%)" offset="0.238281"/><stop stop-opacity="1" stop-color="rgb(13.586426%, 51.647949%, 57.475281%)" offset="0.242188"/><stop stop-opacity="1" stop-color="rgb(13.804626%, 51.785278%, 57.661438%)" offset="0.246094"/><stop stop-opacity="1" stop-color="rgb(14.024353%, 51.924133%, 57.849121%)" offset="0.25"/><stop stop-opacity="1" stop-color="rgb(14.242554%, 52.061462%, 58.035278%)" offset="0.253906"/><stop stop-opacity="1" stop-color="rgb(14.46228%, 52.200317%, 58.222961%)" offset="0.257812"/><stop stop-opacity="1" stop-color="rgb(14.680481%, 52.337646%, 58.409119%)" offset="0.261719"/><stop stop-opacity="1" stop-color="rgb(14.900208%, 52.476501%, 58.596802%)" offset="0.265625"/><stop stop-opacity="1" stop-color="rgb(15.119934%, 52.613831%, 58.782959%)" offset="0.269531"/><stop stop-opacity="1" stop-color="rgb(15.339661%, 52.75116%, 58.969116%)" offset="0.273437"/><stop stop-opacity="1" stop-color="rgb(15.557861%, 52.888489%, 59.155273%)" offset="0.277344"/><stop stop-opacity="1" stop-color="rgb(15.777588%, 53.027344%, 59.342957%)" offset="0.28125"/><stop stop-opacity="1" stop-color="rgb(15.995789%, 53.164673%, 59.529114%)" offset="0.285156"/><stop stop-opacity="1" stop-color="rgb(16.215515%, 53.303528%, 59.716797%)" offset="0.289062"/><stop stop-opacity="1" stop-color="rgb(16.433716%, 53.440857%, 59.902954%)" offset="0.292969"/><stop stop-opacity="1" stop-color="rgb(16.653442%, 53.578186%, 60.089111%)" offset="0.296875"/><stop stop-opacity="1" stop-color="rgb(16.873169%, 53.715515%, 60.275269%)" offset="0.300781"/><stop stop-opacity="1" stop-color="rgb(17.092896%, 53.85437%, 60.462952%)" offset="0.304687"/><stop stop-opacity="1" stop-color="rgb(17.311096%, 53.991699%, 60.649109%)" offset="0.308594"/><stop stop-opacity="1" stop-color="rgb(17.530823%, 54.130554%, 60.836792%)" offset="0.3125"/><stop stop-opacity="1" stop-color="rgb(17.749023%, 54.267883%, 61.022949%)" offset="0.316406"/><stop stop-opacity="1" stop-color="rgb(17.96875%, 54.406738%, 61.210632%)" offset="0.320312"/><stop stop-opacity="1" stop-color="rgb(18.186951%, 54.544067%, 61.39679%)" offset="0.324219"/><stop stop-opacity="1" stop-color="rgb(18.406677%, 54.681396%, 61.582947%)" offset="0.328125"/><stop stop-opacity="1" stop-color="rgb(18.624878%, 54.818726%, 61.769104%)" offset="0.332031"/><stop stop-opacity="1" stop-color="rgb(18.844604%, 54.957581%, 61.956787%)" offset="0.335937"/><stop stop-opacity="1" stop-color="rgb(19.064331%, 55.09491%, 62.142944%)" offset="0.339844"/><stop stop-opacity="1" stop-color="rgb(19.284058%, 55.233765%, 62.330627%)" offset="0.34375"/><stop stop-opacity="1" stop-color="rgb(19.502258%, 55.371094%, 62.516785%)" offset="0.347656"/><stop stop-opacity="1" stop-color="rgb(19.721985%, 55.509949%, 62.704468%)" offset="0.351562"/><stop stop-opacity="1" stop-color="rgb(19.940186%, 55.647278%, 62.890625%)" offset="0.355469"/><stop stop-opacity="1" stop-color="rgb(20.159912%, 55.784607%, 63.076782%)" offset="0.359375"/><stop stop-opacity="1" stop-color="rgb(20.378113%, 55.921936%, 63.262939%)" offset="0.363281"/><stop stop-opacity="1" stop-color="rgb(20.597839%, 56.060791%, 63.450623%)" offset="0.367187"/><stop stop-opacity="1" stop-color="rgb(20.817566%, 56.19812%, 63.63678%)" offset="0.371094"/><stop stop-opacity="1" stop-color="rgb(21.037292%, 56.336975%, 63.824463%)" offset="0.375"/><stop stop-opacity="1" stop-color="rgb(21.255493%, 56.474304%, 64.01062%)" offset="0.378906"/><stop stop-opacity="1" stop-color="rgb(21.47522%, 56.613159%, 64.198303%)" offset="0.382812"/><stop stop-opacity="1" stop-color="rgb(21.69342%, 56.750488%, 64.38446%)" offset="0.386719"/><stop stop-opacity="1" stop-color="rgb(21.913147%, 56.887817%, 64.570618%)" offset="0.390625"/><stop stop-opacity="1" stop-color="rgb(22.131348%, 57.025146%, 64.756775%)" offset="0.394531"/><stop stop-opacity="1" stop-color="rgb(22.351074%, 57.164001%, 64.944458%)" offset="0.398438"/><stop stop-opacity="1" stop-color="rgb(22.570801%, 57.301331%, 65.130615%)" offset="0.402344"/><stop stop-opacity="1" stop-color="rgb(22.790527%, 57.440186%, 65.318298%)" offset="0.40625"/><stop stop-opacity="1" stop-color="rgb(23.008728%, 57.577515%, 65.504456%)" offset="0.410156"/><stop stop-opacity="1" stop-color="rgb(23.228455%, 57.71637%, 65.692139%)" offset="0.414062"/><stop stop-opacity="1" stop-color="rgb(23.446655%, 57.853699%, 65.878296%)" offset="0.417969"/><stop stop-opacity="1" stop-color="rgb(23.666382%, 57.991028%, 66.064453%)" offset="0.421875"/><stop stop-opacity="1" stop-color="rgb(23.884583%, 58.128357%, 66.25061%)" offset="0.425781"/><stop stop-opacity="1" stop-color="rgb(24.104309%, 58.267212%, 66.438293%)" offset="0.429688"/><stop stop-opacity="1" stop-color="rgb(24.32251%, 58.404541%, 66.624451%)" offset="0.433594"/><stop stop-opacity="1" stop-color="rgb(24.542236%, 58.543396%, 66.812134%)" offset="0.4375"/><stop stop-opacity="1" stop-color="rgb(24.761963%, 58.680725%, 66.998291%)" offset="0.441406"/><stop stop-opacity="1" stop-color="rgb(24.981689%, 58.818054%, 67.184448%)" offset="0.445312"/><stop stop-opacity="1" stop-color="rgb(25.19989%, 58.955383%, 67.370605%)" offset="0.449219"/><stop stop-opacity="1" stop-color="rgb(25.419617%, 59.094238%, 67.558289%)" offset="0.453125"/><stop stop-opacity="1" stop-color="rgb(25.637817%, 59.231567%, 67.744446%)" offset="0.457031"/><stop stop-opacity="1" stop-color="rgb(25.857544%, 59.370422%, 67.932129%)" offset="0.460938"/><stop stop-opacity="1" stop-color="rgb(26.075745%, 59.507751%, 68.118286%)" offset="0.464844"/><stop stop-opacity="1" stop-color="rgb(26.295471%, 59.646606%, 68.305969%)" offset="0.46875"/><stop stop-opacity="1" stop-color="rgb(26.515198%, 59.783936%, 68.492126%)" offset="0.472656"/><stop stop-opacity="1" stop-color="rgb(26.734924%, 59.921265%, 68.678284%)" offset="0.476562"/><stop stop-opacity="1" stop-color="rgb(26.953125%, 60.058594%, 68.864441%)" offset="0.480469"/><stop stop-opacity="1" stop-color="rgb(27.172852%, 60.197449%, 69.052124%)" offset="0.484375"/><stop stop-opacity="1" stop-color="rgb(27.391052%, 60.334778%, 69.238281%)" offset="0.488281"/><stop stop-opacity="1" stop-color="rgb(27.610779%, 60.473633%, 69.425964%)" offset="0.492188"/><stop stop-opacity="1" stop-color="rgb(27.828979%, 60.610962%, 69.612122%)" offset="0.496094"/><stop stop-opacity="1" stop-color="rgb(28.048706%, 60.749817%, 69.799805%)" offset="0.5"/><stop stop-opacity="1" stop-color="rgb(28.268433%, 60.887146%, 69.985962%)" offset="0.503906"/><stop stop-opacity="1" stop-color="rgb(28.488159%, 61.024475%, 70.172119%)" offset="0.507812"/><stop stop-opacity="1" stop-color="rgb(28.70636%, 61.161804%, 70.358276%)" offset="0.511719"/><stop stop-opacity="1" stop-color="rgb(28.926086%, 61.300659%, 70.545959%)" offset="0.515625"/><stop stop-opacity="1" stop-color="rgb(29.144287%, 61.437988%, 70.732117%)" offset="0.519531"/><stop stop-opacity="1" stop-color="rgb(29.364014%, 61.576843%, 70.9198%)" offset="0.523437"/><stop stop-opacity="1" stop-color="rgb(29.582214%, 61.714172%, 71.105957%)" offset="0.527344"/><stop stop-opacity="1" stop-color="rgb(29.801941%, 61.853027%, 71.29364%)" offset="0.53125"/><stop stop-opacity="1" stop-color="rgb(30.021667%, 61.990356%, 71.479797%)" offset="0.535156"/><stop stop-opacity="1" stop-color="rgb(30.241394%, 62.127686%, 71.665955%)" offset="0.539062"/><stop stop-opacity="1" stop-color="rgb(30.459595%, 62.265015%, 71.852112%)" offset="0.542969"/><stop stop-opacity="1" stop-color="rgb(30.679321%, 62.40387%, 72.039795%)" offset="0.546875"/><stop stop-opacity="1" stop-color="rgb(30.897522%, 62.541199%, 72.225952%)" offset="0.550781"/><stop stop-opacity="1" stop-color="rgb(31.117249%, 62.680054%, 72.413635%)" offset="0.554687"/><stop stop-opacity="1" stop-color="rgb(31.335449%, 62.817383%, 72.599792%)" offset="0.558594"/><stop stop-opacity="1" stop-color="rgb(31.555176%, 62.956238%, 72.787476%)" offset="0.5625"/><stop stop-opacity="1" stop-color="rgb(31.773376%, 63.093567%, 72.973633%)" offset="0.566406"/><stop stop-opacity="1" stop-color="rgb(31.993103%, 63.230896%, 73.15979%)" offset="0.570312"/><stop stop-opacity="1" stop-color="rgb(32.21283%, 63.368225%, 73.345947%)" offset="0.574219"/><stop stop-opacity="1" stop-color="rgb(32.432556%, 63.50708%, 73.53363%)" offset="0.578125"/><stop stop-opacity="1" stop-color="rgb(32.650757%, 63.644409%, 73.719788%)" offset="0.582031"/><stop stop-opacity="1" stop-color="rgb(32.870483%, 63.783264%, 73.907471%)" offset="0.585937"/><stop stop-opacity="1" stop-color="rgb(33.088684%, 63.920593%, 74.093628%)" offset="0.589844"/><stop stop-opacity="1" stop-color="rgb(33.308411%, 64.057922%, 74.279785%)" offset="0.59375"/><stop stop-opacity="1" stop-color="rgb(33.526611%, 64.195251%, 74.465942%)" offset="0.597656"/><stop stop-opacity="1" stop-color="rgb(33.746338%, 64.334106%, 74.653625%)" offset="0.601562"/><stop stop-opacity="1" stop-color="rgb(33.966064%, 64.471436%, 74.839783%)" offset="0.605469"/><stop stop-opacity="1" stop-color="rgb(34.185791%, 64.610291%, 75.027466%)" offset="0.609375"/><stop stop-opacity="1" stop-color="rgb(34.403992%, 64.74762%, 75.213623%)" offset="0.613281"/><stop stop-opacity="1" stop-color="rgb(34.623718%, 64.886475%, 75.401306%)" offset="0.617187"/><stop stop-opacity="1" stop-color="rgb(34.841919%, 65.023804%, 75.587463%)" offset="0.621094"/><stop stop-opacity="1" stop-color="rgb(35.061646%, 65.161133%, 75.773621%)" offset="0.625"/><stop stop-opacity="1" stop-color="rgb(35.279846%, 65.298462%, 75.959778%)" offset="0.628906"/><stop stop-opacity="1" stop-color="rgb(35.499573%, 65.437317%, 76.147461%)" offset="0.632812"/><stop stop-opacity="1" stop-color="rgb(35.719299%, 65.574646%, 76.333618%)" offset="0.636719"/><stop stop-opacity="1" stop-color="rgb(35.939026%, 65.713501%, 76.521301%)" offset="0.640625"/><stop stop-opacity="1" stop-color="rgb(36.157227%, 65.85083%, 76.707458%)" offset="0.644531"/><stop stop-opacity="1" stop-color="rgb(36.376953%, 65.989685%, 76.895142%)" offset="0.648437"/><stop stop-opacity="1" stop-color="rgb(36.595154%, 66.127014%, 77.081299%)" offset="0.652344"/><stop stop-opacity="1" stop-color="rgb(36.81488%, 66.264343%, 77.267456%)" offset="0.65625"/><stop stop-opacity="1" stop-color="rgb(37.033081%, 66.401672%, 77.453613%)" offset="0.660156"/><stop stop-opacity="1" stop-color="rgb(37.252808%, 66.540527%, 77.641296%)" offset="0.664062"/><stop stop-opacity="1" stop-color="rgb(37.471008%, 66.677856%, 77.827454%)" offset="0.667969"/><stop stop-opacity="1" stop-color="rgb(37.690735%, 66.816711%, 78.015137%)" offset="0.671875"/><stop stop-opacity="1" stop-color="rgb(37.910461%, 66.954041%, 78.201294%)" offset="0.675781"/><stop stop-opacity="1" stop-color="rgb(38.130188%, 67.092896%, 78.388977%)" offset="0.679687"/><stop stop-opacity="1" stop-color="rgb(38.348389%, 67.230225%, 78.575134%)" offset="0.683594"/><stop stop-opacity="1" stop-color="rgb(38.568115%, 67.367554%, 78.761292%)" offset="0.6875"/><stop stop-opacity="1" stop-color="rgb(38.786316%, 67.504883%, 78.947449%)" offset="0.691406"/><stop stop-opacity="1" stop-color="rgb(39.006042%, 67.643738%, 79.135132%)" offset="0.695312"/><stop stop-opacity="1" stop-color="rgb(39.224243%, 67.781067%, 79.321289%)" offset="0.699219"/><stop stop-opacity="1" stop-color="rgb(39.44397%, 67.919922%, 79.508972%)" offset="0.703125"/><stop stop-opacity="1" stop-color="rgb(39.663696%, 68.057251%, 79.695129%)" offset="0.707031"/><stop stop-opacity="1" stop-color="rgb(39.883423%, 68.19458%, 79.881287%)" offset="0.710937"/><stop stop-opacity="1" stop-color="rgb(40.101624%, 68.331909%, 80.067444%)" offset="0.714844"/><stop stop-opacity="1" stop-color="rgb(40.32135%, 68.470764%, 80.255127%)" offset="0.71875"/><stop stop-opacity="1" stop-color="rgb(40.539551%, 68.608093%, 80.441284%)" offset="0.722656"/><stop stop-opacity="1" stop-color="rgb(40.759277%, 68.746948%, 80.628967%)" offset="0.726562"/><stop stop-opacity="1" stop-color="rgb(40.977478%, 68.884277%, 80.815125%)" offset="0.730469"/><stop stop-opacity="1" stop-color="rgb(41.197205%, 69.023132%, 81.002808%)" offset="0.734375"/><stop stop-opacity="1" stop-color="rgb(41.416931%, 69.160461%, 81.188965%)" offset="0.738281"/><stop stop-opacity="1" stop-color="rgb(41.636658%, 69.297791%, 81.375122%)" offset="0.742187"/><stop stop-opacity="1" stop-color="rgb(41.854858%, 69.43512%, 81.561279%)" offset="0.746094"/><stop stop-opacity="1" stop-color="rgb(42.074585%, 69.573975%, 81.748962%)" offset="0.75"/><stop stop-opacity="1" stop-color="rgb(42.292786%, 69.711304%, 81.93512%)" offset="0.753906"/><stop stop-opacity="1" stop-color="rgb(42.512512%, 69.850159%, 82.122803%)" offset="0.757812"/><stop stop-opacity="1" stop-color="rgb(42.730713%, 69.987488%, 82.30896%)" offset="0.761719"/><stop stop-opacity="1" stop-color="rgb(42.950439%, 70.126343%, 82.496643%)" offset="0.765625"/><stop stop-opacity="1" stop-color="rgb(43.16864%, 70.263672%, 82.6828%)" offset="0.769531"/><stop stop-opacity="1" stop-color="rgb(43.388367%, 70.401001%, 82.868958%)" offset="0.773438"/><stop stop-opacity="1" stop-color="rgb(43.608093%, 70.53833%, 83.055115%)" offset="0.777344"/><stop stop-opacity="1" stop-color="rgb(43.82782%, 70.677185%, 83.242798%)" offset="0.78125"/><stop stop-opacity="1" stop-color="rgb(44.046021%, 70.814514%, 83.428955%)" offset="0.785156"/><stop stop-opacity="1" stop-color="rgb(44.265747%, 70.953369%, 83.616638%)" offset="0.789062"/><stop stop-opacity="1" stop-color="rgb(44.483948%, 71.090698%, 83.802795%)" offset="0.792969"/><stop stop-opacity="1" stop-color="rgb(44.703674%, 71.229553%, 83.990479%)" offset="0.796875"/><stop stop-opacity="1" stop-color="rgb(44.921875%, 71.366882%, 84.176636%)" offset="0.800781"/><stop stop-opacity="1" stop-color="rgb(45.141602%, 71.504211%, 84.362793%)" offset="0.804688"/><stop stop-opacity="1" stop-color="rgb(45.361328%, 71.641541%, 84.54895%)" offset="0.808594"/><stop stop-opacity="1" stop-color="rgb(45.581055%, 71.780396%, 84.736633%)" offset="0.8125"/><stop stop-opacity="1" stop-color="rgb(45.799255%, 71.917725%, 84.922791%)" offset="0.816406"/><stop stop-opacity="1" stop-color="rgb(46.018982%, 72.05658%, 85.110474%)" offset="0.820312"/><stop stop-opacity="1" stop-color="rgb(46.237183%, 72.193909%, 85.296631%)" offset="0.824219"/><stop stop-opacity="1" stop-color="rgb(46.456909%, 72.332764%, 85.484314%)" offset="0.828125"/><stop stop-opacity="1" stop-color="rgb(46.67511%, 72.470093%, 85.670471%)" offset="0.832031"/><stop stop-opacity="1" stop-color="rgb(46.894836%, 72.607422%, 85.856628%)" offset="0.835938"/><stop stop-opacity="1" stop-color="rgb(47.114563%, 72.744751%, 86.042786%)" offset="0.839844"/><stop stop-opacity="1" stop-color="rgb(47.33429%, 72.883606%, 86.230469%)" offset="0.84375"/><stop stop-opacity="1" stop-color="rgb(47.55249%, 73.020935%, 86.416626%)" offset="0.847656"/><stop stop-opacity="1" stop-color="rgb(47.772217%, 73.15979%, 86.604309%)" offset="0.851562"/><stop stop-opacity="1" stop-color="rgb(47.990417%, 73.297119%, 86.790466%)" offset="0.855469"/><stop stop-opacity="1" stop-color="rgb(48.210144%, 73.434448%, 86.976624%)" offset="0.859375"/><stop stop-opacity="1" stop-color="rgb(48.428345%, 73.571777%, 87.162781%)" offset="0.863281"/><stop stop-opacity="1" stop-color="rgb(48.648071%, 73.710632%, 87.350464%)" offset="0.867188"/><stop stop-opacity="1" stop-color="rgb(48.866272%, 73.847961%, 87.536621%)" offset="0.871094"/><stop stop-opacity="1" stop-color="rgb(49.085999%, 73.986816%, 87.724304%)" offset="0.875"/><stop stop-opacity="1" stop-color="rgb(49.305725%, 74.124146%, 87.910461%)" offset="0.878906"/><stop stop-opacity="1" stop-color="rgb(49.525452%, 74.263%, 88.098145%)" offset="0.882812"/><stop stop-opacity="1" stop-color="rgb(49.743652%, 74.40033%, 88.284302%)" offset="0.886719"/><stop stop-opacity="1" stop-color="rgb(49.963379%, 74.537659%, 88.470459%)" offset="0.890625"/><stop stop-opacity="1" stop-color="rgb(50.18158%, 74.674988%, 88.656616%)" offset="0.894531"/><stop stop-opacity="1" stop-color="rgb(50.401306%, 74.813843%, 88.844299%)" offset="0.898438"/><stop stop-opacity="1" stop-color="rgb(50.619507%, 74.951172%, 89.030457%)" offset="0.902344"/><stop stop-opacity="1" stop-color="rgb(50.839233%, 75.090027%, 89.21814%)" offset="0.90625"/><stop stop-opacity="1" stop-color="rgb(51.05896%, 75.227356%, 89.404297%)" offset="0.910156"/><stop stop-opacity="1" stop-color="rgb(51.278687%, 75.366211%, 89.59198%)" offset="0.914062"/><stop stop-opacity="1" stop-color="rgb(51.496887%, 75.50354%, 89.778137%)" offset="0.917969"/><stop stop-opacity="1" stop-color="rgb(51.716614%, 75.640869%, 89.964294%)" offset="0.921875"/><stop stop-opacity="1" stop-color="rgb(51.934814%, 75.778198%, 90.150452%)" offset="0.925781"/><stop stop-opacity="1" stop-color="rgb(52.154541%, 75.917053%, 90.338135%)" offset="0.929688"/><stop stop-opacity="1" stop-color="rgb(52.372742%, 76.054382%, 90.524292%)" offset="0.933594"/><stop stop-opacity="1" stop-color="rgb(52.592468%, 76.193237%, 90.711975%)" offset="0.9375"/><stop stop-opacity="1" stop-color="rgb(52.812195%, 76.330566%, 90.898132%)" offset="0.941406"/><stop stop-opacity="1" stop-color="rgb(53.031921%, 76.469421%, 91.085815%)" offset="0.945312"/><stop stop-opacity="1" stop-color="rgb(53.250122%, 76.60675%, 91.271973%)" offset="0.949219"/><stop stop-opacity="1" stop-color="rgb(53.469849%, 76.74408%, 91.45813%)" offset="0.953125"/><stop stop-opacity="1" stop-color="rgb(53.688049%, 76.881409%, 91.644287%)" offset="0.957031"/><stop stop-opacity="1" stop-color="rgb(53.907776%, 77.020264%, 91.83197%)" offset="0.960938"/><stop stop-opacity="1" stop-color="rgb(54.125977%, 77.157593%, 92.018127%)" offset="0.964844"/><stop stop-opacity="1" stop-color="rgb(54.345703%, 77.296448%, 92.205811%)" offset="0.96875"/><stop stop-opacity="1" stop-color="rgb(54.563904%, 77.433777%, 92.391968%)" offset="0.972656"/><stop stop-opacity="1" stop-color="rgb(54.78363%, 77.572632%, 92.579651%)" offset="0.976562"/><stop stop-opacity="1" stop-color="rgb(55.003357%, 77.709961%, 92.765808%)" offset="0.980469"/><stop stop-opacity="1" stop-color="rgb(55.223083%, 77.84729%, 92.951965%)" offset="0.984375"/><stop stop-opacity="1" stop-color="rgb(55.441284%, 77.984619%, 93.138123%)" offset="0.988281"/><stop stop-opacity="1" stop-color="rgb(55.661011%, 78.123474%, 93.325806%)" offset="0.992188"/><stop stop-opacity="1" stop-color="rgb(55.879211%, 78.260803%, 93.511963%)" offset="0.996094"/><stop stop-opacity="1" stop-color="rgb(56.098938%, 78.399658%, 93.699646%)" offset="1"/></linearGradient><clipPath id="ca49fcde0b"><path d="M 62.511719 167.539062 L 97.761719 167.539062 L 97.761719 202.789062 L 62.511719 202.789062 Z M 62.511719 167.539062 " clip-rule="nonzero"/></clipPath><clipPath id="1cdc29d2a4"><path d="M 50.972656 156.003906 L 108.722656 156.003906 L 108.722656 213.753906 L 50.972656 213.753906 Z M 50.972656 156.003906 " clip-rule="nonzero"/></clipPath><clipPath id="5c458fa7ed"><path d="M 50.972656 163.503906 L 50.972656 206.46875 C 50.972656 210.613281 54.332031 213.96875 58.472656 213.96875 L 101.4375 213.96875 C 105.582031 213.96875 108.9375 210.613281 108.9375 206.46875 L 108.9375 163.503906 C 108.9375 159.363281 105.582031 156.003906 101.4375 156.003906 L 58.472656 156.003906 C 54.332031 156.003906 50.972656 159.363281 50.972656 163.503906 Z M 50.972656 163.503906 " clip-rule="nonzero"/></clipPath><clipPath id="ebc1b6204c"><path d="M 42.457031 180.6875 L 117.457031 180.6875 L 117.457031 247.4375 L 42.457031 247.4375 Z M 42.457031 180.6875 " clip-rule="nonzero"/></clipPath></defs><rect x="-37.5" width="450" fill="#ffffff" y="-37.499999" height="449.999989" fill-opacity="1"/><rect x="-37.5" fill="url(#3e5eea0e34)" width="450" y="-37.499999" height="449.999989"/><g clip-path="url(#ca49fcde0b)"><path fill="#2538b4" d="M 79.953125 202.425781 C 70.316406 202.425781 62.511719 194.566406 62.511719 184.984375 C 62.511719 175.402344 70.316406 167.539062 79.953125 167.539062 C 89.589844 167.539062 97.398438 175.347656 97.398438 184.984375 C 97.398438 194.621094 89.535156 202.425781 79.953125 202.425781 Z M 79.953125 168.617188 C 70.910156 168.617188 63.585938 175.9375 63.585938 184.984375 C 63.585938 194.027344 70.910156 201.351562 79.953125 201.351562 C 88.996094 201.351562 96.320312 194.027344 96.320312 184.984375 C 96.320312 175.9375 88.945312 168.617188 79.953125 168.617188 Z M 79.953125 168.617188 " fill-opacity="1" fill-rule="nonzero"/></g><g fill="#ffffff" fill-opacity="1"><g transform="translate(113.076347, 202.987251)"><g><path d="M 15.65625 0.375 C 13.238281 0.375 11.078125 -0.0507812 9.171875 -0.90625 C 7.265625 -1.769531 5.765625 -2.960938 4.671875 -4.484375 C 3.585938 -6.015625 3.03125 -7.78125 3 -9.78125 L 8.09375 -9.78125 C 8.269531 -8.0625 8.976562 -6.613281 10.21875 -5.4375 C 11.457031 -4.257812 13.269531 -3.671875 15.65625 -3.671875 C 17.9375 -3.671875 19.734375 -4.238281 21.046875 -5.375 C 22.359375 -6.519531 23.015625 -7.988281 23.015625 -9.78125 C 23.015625 -11.175781 22.628906 -12.3125 21.859375 -13.1875 C 21.085938 -14.0625 20.125 -14.726562 18.96875 -15.1875 C 17.8125 -15.644531 16.253906 -16.132812 14.296875 -16.65625 C 11.878906 -17.289062 9.941406 -17.921875 8.484375 -18.546875 C 7.035156 -19.179688 5.789062 -20.171875 4.75 -21.515625 C 3.71875 -22.867188 3.203125 -24.679688 3.203125 -26.953125 C 3.203125 -28.953125 3.707031 -30.722656 4.71875 -32.265625 C 5.738281 -33.804688 7.164062 -34.992188 9 -35.828125 C 10.84375 -36.671875 12.957031 -37.09375 15.34375 -37.09375 C 18.78125 -37.09375 21.59375 -36.234375 23.78125 -34.515625 C 25.96875 -32.804688 27.203125 -30.53125 27.484375 -27.6875 L 22.234375 -27.6875 C 22.054688 -29.09375 21.316406 -30.328125 20.015625 -31.390625 C 18.722656 -32.460938 17.007812 -33 14.875 -33 C 12.875 -33 11.242188 -32.484375 9.984375 -31.453125 C 8.722656 -30.421875 8.09375 -28.972656 8.09375 -27.109375 C 8.09375 -25.785156 8.46875 -24.703125 9.21875 -23.859375 C 9.976562 -23.015625 10.90625 -22.375 12 -21.9375 C 13.101562 -21.5 14.65625 -21 16.65625 -20.4375 C 19.070312 -19.769531 21.015625 -19.113281 22.484375 -18.46875 C 23.960938 -17.820312 25.222656 -16.820312 26.265625 -15.46875 C 27.316406 -14.125 27.84375 -12.296875 27.84375 -9.984375 C 27.84375 -8.191406 27.367188 -6.507812 26.421875 -4.9375 C 25.484375 -3.363281 24.082031 -2.082031 22.21875 -1.09375 C 20.363281 -0.113281 18.175781 0.375 15.65625 0.375 Z M 15.65625 0.375 "/></g></g></g><g fill="#ffffff" fill-opacity="1"><g transform="translate(141.444746, 202.987251)"><g><path d="M 28.84375 -28.796875 L 11.5 13.5625 L 6.5625 13.5625 L 12.25 -0.3125 L 0.625 -28.796875 L 5.9375 -28.796875 L 14.96875 -5.46875 L 23.90625 -28.796875 Z M 28.84375 -28.796875 "/></g></g></g><g fill="#ffffff" fill-opacity="1"><g transform="translate(168.552293, 202.987251)"><g><path d="M 14.234375 0.46875 C 12.035156 0.46875 10.054688 0.09375 8.296875 -0.65625 C 6.546875 -1.40625 5.160156 -2.453125 4.140625 -3.796875 C 3.128906 -5.148438 2.570312 -6.703125 2.46875 -8.453125 L 7.40625 -8.453125 C 7.550781 -7.023438 8.226562 -5.851562 9.4375 -4.9375 C 10.644531 -4.03125 12.226562 -3.578125 14.1875 -3.578125 C 16.007812 -3.578125 17.445312 -3.976562 18.5 -4.78125 C 19.550781 -5.582031 20.078125 -6.597656 20.078125 -7.828125 C 20.078125 -9.085938 19.515625 -10.023438 18.390625 -10.640625 C 17.265625 -11.253906 15.53125 -11.859375 13.1875 -12.453125 C 11.050781 -13.015625 9.304688 -13.582031 7.953125 -14.15625 C 6.609375 -14.738281 5.453125 -15.597656 4.484375 -16.734375 C 3.523438 -17.867188 3.046875 -19.367188 3.046875 -21.234375 C 3.046875 -22.703125 3.484375 -24.046875 4.359375 -25.265625 C 5.234375 -26.492188 6.476562 -27.46875 8.09375 -28.1875 C 9.707031 -28.90625 11.546875 -29.265625 13.609375 -29.265625 C 16.796875 -29.265625 19.367188 -28.457031 21.328125 -26.84375 C 23.296875 -25.238281 24.347656 -23.035156 24.484375 -20.234375 L 19.703125 -20.234375 C 19.597656 -21.734375 18.992188 -22.9375 17.890625 -23.84375 C 16.785156 -24.757812 15.304688 -25.21875 13.453125 -25.21875 C 11.734375 -25.21875 10.363281 -24.847656 9.34375 -24.109375 C 8.332031 -23.378906 7.828125 -22.421875 7.828125 -21.234375 C 7.828125 -20.285156 8.132812 -19.503906 8.75 -18.890625 C 9.363281 -18.273438 10.132812 -17.785156 11.0625 -17.421875 C 11.988281 -17.054688 13.273438 -16.644531 14.921875 -16.1875 C 16.992188 -15.625 18.675781 -15.070312 19.96875 -14.53125 C 21.257812 -13.988281 22.367188 -13.171875 23.296875 -12.078125 C 24.234375 -10.992188 24.71875 -9.578125 24.75 -7.828125 C 24.75 -6.253906 24.3125 -4.835938 23.4375 -3.578125 C 22.5625 -2.316406 21.328125 -1.328125 19.734375 -0.609375 C 18.140625 0.109375 16.304688 0.46875 14.234375 0.46875 Z M 14.234375 0.46875 "/></g></g></g><g clip-path="url(#1cdc29d2a4)"><g clip-path="url(#5c458fa7ed)"><path fill="#2538b4" d="M 79.953125 213.964844 C 63.945312 213.964844 50.972656 200.90625 50.972656 184.984375 C 50.972656 169.0625 63.945312 156.003906 79.953125 156.003906 C 95.964844 156.003906 108.933594 168.972656 108.933594 184.984375 C 108.933594 200.996094 95.875 213.964844 79.953125 213.964844 Z M 79.953125 157.792969 C 64.925781 157.792969 52.761719 169.957031 52.761719 184.984375 C 52.761719 200.011719 64.925781 212.175781 79.953125 212.175781 C 94.980469 212.175781 107.144531 200.011719 107.144531 184.984375 C 107.144531 169.957031 94.890625 157.792969 79.953125 157.792969 Z M 79.953125 157.792969 " fill-opacity="1" fill-rule="nonzero"/></g></g><g clip-path="url(#ebc1b6204c)"><path fill="#58ffbe" d="M 69.601562 198.789062 L 42.457031 247.4375 L 79.96875 225.859375 L 117.445312 247.414062 L 117.457031 247.386719 L 117.445312 247.375 L 79.980469 180.527344 L 79.980469 180.515625 L 79.957031 180.503906 Z M 69.601562 198.789062 " fill-opacity="1" fill-rule="nonzero"/></g><g fill="#ffffff" fill-opacity="1"><g transform="translate(193.161129, 205.499987)"><g><path d="M 25.703125 -8.140625 L 9.71875 -8.140625 L 6.78125 0 L 1.734375 0 L 14.96875 -36.421875 L 20.5 -36.421875 L 33.6875 0 L 28.640625 0 Z M 24.328125 -12.03125 L 17.703125 -30.53125 L 11.09375 -12.03125 Z M 24.328125 -12.03125 "/></g></g></g><g fill="#ffffff" fill-opacity="1"><g transform="translate(226.100081, 205.499987)"><g><path d="M 14.234375 0.46875 C 12.035156 0.46875 10.054688 0.09375 8.296875 -0.65625 C 6.546875 -1.40625 5.160156 -2.453125 4.140625 -3.796875 C 3.128906 -5.148438 2.570312 -6.703125 2.46875 -8.453125 L 7.40625 -8.453125 C 7.550781 -7.023438 8.226562 -5.851562 9.4375 -4.9375 C 10.644531 -4.03125 12.226562 -3.578125 14.1875 -3.578125 C 16.007812 -3.578125 17.445312 -3.976562 18.5 -4.78125 C 19.550781 -5.582031 20.078125 -6.597656 20.078125 -7.828125 C 20.078125 -9.085938 19.515625 -10.023438 18.390625 -10.640625 C 17.265625 -11.253906 15.53125 -11.859375 13.1875 -12.453125 C 11.050781 -13.015625 9.304688 -13.582031 7.953125 -14.15625 C 6.609375 -14.738281 5.453125 -15.597656 4.484375 -16.734375 C 3.523438 -17.867188 3.046875 -19.367188 3.046875 -21.234375 C 3.046875 -22.703125 3.484375 -24.046875 4.359375 -25.265625 C 5.234375 -26.492188 6.476562 -27.46875 8.09375 -28.1875 C 9.707031 -28.90625 11.546875 -29.265625 13.609375 -29.265625 C 16.796875 -29.265625 19.367188 -28.457031 21.328125 -26.84375 C 23.296875 -25.238281 24.347656 -23.035156 24.484375 -20.234375 L 19.703125 -20.234375 C 19.597656 -21.734375 18.992188 -22.9375 17.890625 -23.84375 C 16.785156 -24.757812 15.304688 -25.21875 13.453125 -25.21875 C 11.734375 -25.21875 10.363281 -24.847656 9.34375 -24.109375 C 8.332031 -23.378906 7.828125 -22.421875 7.828125 -21.234375 C 7.828125 -20.285156 8.132812 -19.503906 8.75 -18.890625 C 9.363281 -18.273438 10.132812 -17.785156 11.0625 -17.421875 C 11.988281 -17.054688 13.273438 -16.644531 14.921875 -16.1875 C 16.992188 -15.625 18.675781 -15.070312 19.96875 -14.53125 C 21.257812 -13.988281 22.367188 -13.171875 23.296875 -12.078125 C 24.234375 -10.992188 24.71875 -9.578125 24.75 -7.828125 C 24.75 -6.253906 24.3125 -4.835938 23.4375 -3.578125 C 22.5625 -2.316406 21.328125 -1.328125 19.734375 -0.609375 C 18.140625 0.109375 16.304688 0.46875 14.234375 0.46875 Z M 14.234375 0.46875 "/></g></g></g><g fill="#ffffff" fill-opacity="1"><g transform="translate(251.05369, 205.499987)"><g><path d="M 14.234375 0.46875 C 12.035156 0.46875 10.054688 0.09375 8.296875 -0.65625 C 6.546875 -1.40625 5.160156 -2.453125 4.140625 -3.796875 C 3.128906 -5.148438 2.570312 -6.703125 2.46875 -8.453125 L 7.40625 -8.453125 C 7.550781 -7.023438 8.226562 -5.851562 9.4375 -4.9375 C 10.644531 -4.03125 12.226562 -3.578125 14.1875 -3.578125 C 16.007812 -3.578125 17.445312 -3.976562 18.5 -4.78125 C 19.550781 -5.582031 20.078125 -6.597656 20.078125 -7.828125 C 20.078125 -9.085938 19.515625 -10.023438 18.390625 -10.640625 C 17.265625 -11.253906 15.53125 -11.859375 13.1875 -12.453125 C 11.050781 -13.015625 9.304688 -13.582031 7.953125 -14.15625 C 6.609375 -14.738281 5.453125 -15.597656 4.484375 -16.734375 C 3.523438 -17.867188 3.046875 -19.367188 3.046875 -21.234375 C 3.046875 -22.703125 3.484375 -24.046875 4.359375 -25.265625 C 5.234375 -26.492188 6.476562 -27.46875 8.09375 -28.1875 C 9.707031 -28.90625 11.546875 -29.265625 13.609375 -29.265625 C 16.796875 -29.265625 19.367188 -28.457031 21.328125 -26.84375 C 23.296875 -25.238281 24.347656 -23.035156 24.484375 -20.234375 L 19.703125 -20.234375 C 19.597656 -21.734375 18.992188 -22.9375 17.890625 -23.84375 C 16.785156 -24.757812 15.304688 -25.21875 13.453125 -25.21875 C 11.734375 -25.21875 10.363281 -24.847656 9.34375 -24.109375 C 8.332031 -23.378906 7.828125 -22.421875 7.828125 -21.234375 C 7.828125 -20.285156 8.132812 -19.503906 8.75 -18.890625 C 9.363281 -18.273438 10.132812 -17.785156 11.0625 -17.421875 C 11.988281 -17.054688 13.273438 -16.644531 14.921875 -16.1875 C 16.992188 -15.625 18.675781 -15.070312 19.96875 -14.53125 C 21.257812 -13.988281 22.367188 -13.171875 23.296875 -12.078125 C 24.234375 -10.992188 24.71875 -9.578125 24.75 -7.828125 C 24.75 -6.253906 24.3125 -4.835938 23.4375 -3.578125 C 22.5625 -2.316406 21.328125 -1.328125 19.734375 -0.609375 C 18.140625 0.109375 16.304688 0.46875 14.234375 0.46875 Z M 14.234375 0.46875 "/></g></g></g><g fill="#ffffff" fill-opacity="1"><g transform="translate(276.007296, 205.499987)"><g><path d="M 6.515625 -33.46875 C 5.609375 -33.46875 4.835938 -33.78125 4.203125 -34.40625 C 3.578125 -35.039062 3.265625 -35.816406 3.265625 -36.734375 C 3.265625 -37.640625 3.578125 -38.40625 4.203125 -39.03125 C 4.835938 -39.664062 5.609375 -39.984375 6.515625 -39.984375 C 7.390625 -39.984375 8.132812 -39.664062 8.75 -39.03125 C 9.363281 -38.40625 9.671875 -37.640625 9.671875 -36.734375 C 9.671875 -35.816406 9.363281 -35.039062 8.75 -34.40625 C 8.132812 -33.78125 7.390625 -33.46875 6.515625 -33.46875 Z M 8.828125 -28.796875 L 8.828125 0 L 4.046875 0 L 4.046875 -28.796875 Z M 8.828125 -28.796875 "/></g></g></g><g fill="#ffffff" fill-opacity="1"><g transform="translate(286.461199, 205.499987)"><g><path d="M 14.234375 0.46875 C 12.035156 0.46875 10.054688 0.09375 8.296875 -0.65625 C 6.546875 -1.40625 5.160156 -2.453125 4.140625 -3.796875 C 3.128906 -5.148438 2.570312 -6.703125 2.46875 -8.453125 L 7.40625 -8.453125 C 7.550781 -7.023438 8.226562 -5.851562 9.4375 -4.9375 C 10.644531 -4.03125 12.226562 -3.578125 14.1875 -3.578125 C 16.007812 -3.578125 17.445312 -3.976562 18.5 -4.78125 C 19.550781 -5.582031 20.078125 -6.597656 20.078125 -7.828125 C 20.078125 -9.085938 19.515625 -10.023438 18.390625 -10.640625 C 17.265625 -11.253906 15.53125 -11.859375 13.1875 -12.453125 C 11.050781 -13.015625 9.304688 -13.582031 7.953125 -14.15625 C 6.609375 -14.738281 5.453125 -15.597656 4.484375 -16.734375 C 3.523438 -17.867188 3.046875 -19.367188 3.046875 -21.234375 C 3.046875 -22.703125 3.484375 -24.046875 4.359375 -25.265625 C 5.234375 -26.492188 6.476562 -27.46875 8.09375 -28.1875 C 9.707031 -28.90625 11.546875 -29.265625 13.609375 -29.265625 C 16.796875 -29.265625 19.367188 -28.457031 21.328125 -26.84375 C 23.296875 -25.238281 24.347656 -23.035156 24.484375 -20.234375 L 19.703125 -20.234375 C 19.597656 -21.734375 18.992188 -22.9375 17.890625 -23.84375 C 16.785156 -24.757812 15.304688 -25.21875 13.453125 -25.21875 C 11.734375 -25.21875 10.363281 -24.847656 9.34375 -24.109375 C 8.332031 -23.378906 7.828125 -22.421875 7.828125 -21.234375 C 7.828125 -20.285156 8.132812 -19.503906 8.75 -18.890625 C 9.363281 -18.273438 10.132812 -17.785156 11.0625 -17.421875 C 11.988281 -17.054688 13.273438 -16.644531 14.921875 -16.1875 C 16.992188 -15.625 18.675781 -15.070312 19.96875 -14.53125 C 21.257812 -13.988281 22.367188 -13.171875 23.296875 -12.078125 C 24.234375 -10.992188 24.71875 -9.578125 24.75 -7.828125 C 24.75 -6.253906 24.3125 -4.835938 23.4375 -3.578125 C 22.5625 -2.316406 21.328125 -1.328125 19.734375 -0.609375 C 18.140625 0.109375 16.304688 0.46875 14.234375 0.46875 Z M 14.234375 0.46875 "/></g></g></g><g fill="#ffffff" fill-opacity="1"><g transform="translate(311.41481, 205.499987)"><g><path d="M 9.875 -24.859375 L 9.875 -7.875 C 9.875 -6.476562 10.171875 -5.488281 10.765625 -4.90625 C 11.367188 -4.332031 12.40625 -4.046875 13.875 -4.046875 L 17.390625 -4.046875 L 17.390625 0 L 13.078125 0 C 10.421875 0 8.425781 -0.609375 7.09375 -1.828125 C 5.757812 -3.054688 5.09375 -5.070312 5.09375 -7.875 L 5.09375 -24.859375 L 1.359375 -24.859375 L 1.359375 -28.796875 L 5.09375 -28.796875 L 5.09375 -36.046875 L 9.875 -36.046875 L 9.875 -28.796875 L 17.390625 -28.796875 L 17.390625 -24.859375 Z M 9.875 -24.859375 "/></g></g></g><g fill="#ffffff" fill-opacity="1"><g transform="translate(120.657623, 234.005317)"><g><path d="M 1.65625 0 L 1.65625 -1.859375 L 4.015625 -1.859375 L 4.015625 -14.9375 L 1.65625 -14.9375 L 1.65625 -16.796875 L 8.75 -16.796875 L 8.75 -14.9375 L 6.390625 -14.9375 L 6.390625 -1.859375 L 8.75 -1.859375 L 8.75 0 Z M 1.65625 0 "/></g></g></g><g fill="#ffffff" fill-opacity="1"><g transform="translate(131.06425, 234.005317)"><g><path d="M 5.828125 0 L 5.828125 -14.75 L 0.25 -14.75 L 0.25 -16.796875 L 13.78125 -16.796875 L 13.78125 -14.75 L 8.203125 -14.75 L 8.203125 0 Z M 5.828125 0 "/></g></g></g><g fill="#ffffff" fill-opacity="1"><g transform="translate(145.090563, 234.005317)"><g/></g></g><g fill="#ffffff" fill-opacity="1"><g transform="translate(152.128862, 234.005317)"><g><path d="M 7.4375 0.296875 C 6.519531 0.296875 5.625 0.15625 4.75 -0.125 C 3.875 -0.40625 3.101562 -0.835938 2.4375 -1.421875 C 1.78125 -2.015625 1.300781 -2.765625 1 -3.671875 L 3.1875 -4.328125 C 3.394531 -3.722656 3.722656 -3.222656 4.171875 -2.828125 C 4.628906 -2.429688 5.15625 -2.140625 5.75 -1.953125 C 6.34375 -1.773438 6.941406 -1.6875 7.546875 -1.6875 C 8.210938 -1.6875 8.847656 -1.796875 9.453125 -2.015625 C 10.054688 -2.234375 10.546875 -2.5625 10.921875 -3 C 11.296875 -3.445312 11.484375 -4.003906 11.484375 -4.671875 C 11.484375 -5.359375 11.234375 -5.898438 10.734375 -6.296875 C 10.234375 -6.703125 9.363281 -7.066406 8.125 -7.390625 L 5.984375 -7.875 C 5.210938 -8.070312 4.453125 -8.335938 3.703125 -8.671875 C 2.960938 -9.003906 2.351562 -9.476562 1.875 -10.09375 C 1.394531 -10.71875 1.15625 -11.550781 1.15625 -12.59375 C 1.15625 -13.550781 1.453125 -14.363281 2.046875 -15.03125 C 2.640625 -15.707031 3.410156 -16.21875 4.359375 -16.5625 C 5.304688 -16.914062 6.289062 -17.09375 7.3125 -17.09375 C 8.101562 -17.09375 8.878906 -16.976562 9.640625 -16.75 C 10.398438 -16.53125 11.085938 -16.1875 11.703125 -15.71875 C 12.316406 -15.257812 12.800781 -14.671875 13.15625 -13.953125 L 10.984375 -13.328125 C 10.671875 -13.910156 10.15625 -14.351562 9.4375 -14.65625 C 8.726562 -14.957031 7.988281 -15.109375 7.21875 -15.109375 C 6.613281 -15.109375 6.035156 -15.007812 5.484375 -14.8125 C 4.929688 -14.625 4.476562 -14.335938 4.125 -13.953125 C 3.769531 -13.566406 3.59375 -13.082031 3.59375 -12.5 C 3.59375 -11.945312 3.753906 -11.5 4.078125 -11.15625 C 4.410156 -10.820312 4.847656 -10.554688 5.390625 -10.359375 C 5.929688 -10.171875 6.53125 -10.003906 7.1875 -9.859375 L 9.03125 -9.453125 C 9.882812 -9.253906 10.6875 -8.976562 11.4375 -8.625 C 12.1875 -8.269531 12.796875 -7.773438 13.265625 -7.140625 C 13.742188 -6.503906 13.984375 -5.648438 13.984375 -4.578125 C 13.984375 -3.804688 13.796875 -3.113281 13.421875 -2.5 C 13.054688 -1.882812 12.5625 -1.375 11.9375 -0.96875 C 11.320312 -0.5625 10.625 -0.25 9.84375 -0.03125 C 9.0625 0.1875 8.257812 0.296875 7.4375 0.296875 Z M 7.4375 0.296875 "/></g></g></g><g fill="#ffffff" fill-opacity="1"><g transform="translate(167.110379, 234.005317)"><g><path d="M 6.9375 0.296875 C 6.21875 0.296875 5.503906 0.171875 4.796875 -0.078125 C 4.097656 -0.328125 3.457031 -0.710938 2.875 -1.234375 C 2.300781 -1.765625 1.835938 -2.441406 1.484375 -3.265625 C 1.128906 -4.085938 0.953125 -5.0625 0.953125 -6.1875 C 0.953125 -7.3125 1.128906 -8.28125 1.484375 -9.09375 C 1.835938 -9.914062 2.300781 -10.59375 2.875 -11.125 C 3.457031 -11.65625 4.097656 -12.046875 4.796875 -12.296875 C 5.503906 -12.546875 6.21875 -12.671875 6.9375 -12.671875 C 7.65625 -12.671875 8.367188 -12.546875 9.078125 -12.296875 C 9.796875 -12.046875 10.441406 -11.65625 11.015625 -11.125 C 11.597656 -10.59375 12.0625 -9.914062 12.40625 -9.09375 C 12.75 -8.28125 12.921875 -7.3125 12.921875 -6.1875 C 12.921875 -5.0625 12.75 -4.085938 12.40625 -3.265625 C 12.0625 -2.441406 11.597656 -1.765625 11.015625 -1.234375 C 10.441406 -0.710938 9.796875 -0.328125 9.078125 -0.078125 C 8.367188 0.171875 7.65625 0.296875 6.9375 0.296875 Z M 6.9375 -1.5625 C 7.539062 -1.5625 8.125 -1.722656 8.6875 -2.046875 C 9.257812 -2.378906 9.726562 -2.882812 10.09375 -3.5625 C 10.46875 -4.238281 10.65625 -5.113281 10.65625 -6.1875 C 10.65625 -7.257812 10.46875 -8.132812 10.09375 -8.8125 C 9.726562 -9.488281 9.257812 -9.988281 8.6875 -10.3125 C 8.125 -10.644531 7.539062 -10.8125 6.9375 -10.8125 C 6.351562 -10.8125 5.769531 -10.644531 5.1875 -10.3125 C 4.613281 -9.988281 4.140625 -9.488281 3.765625 -8.8125 C 3.398438 -8.132812 3.21875 -7.257812 3.21875 -6.1875 C 3.21875 -5.113281 3.398438 -4.238281 3.765625 -3.5625 C 4.140625 -2.882812 4.613281 -2.378906 5.1875 -2.046875 C 5.769531 -1.722656 6.351562 -1.5625 6.9375 -1.5625 Z M 6.9375 -1.5625 "/></g></g></g><g fill="#ffffff" fill-opacity="1"><g transform="translate(180.98587, 234.005317)"><g><path d="M 4.703125 0 C 3.910156 0 3.300781 -0.078125 2.875 -0.234375 C 2.445312 -0.398438 2.15625 -0.707031 2 -1.15625 C 1.84375 -1.601562 1.765625 -2.257812 1.765625 -3.125 L 1.765625 -16.765625 L 3.875 -16.765625 L 3.875 -3.46875 C 3.875 -2.832031 3.941406 -2.40625 4.078125 -2.1875 C 4.210938 -1.96875 4.570312 -1.859375 5.15625 -1.859375 L 5.625 -1.859375 L 5.625 0 Z M 4.703125 0 "/></g></g></g><g fill="#ffffff" fill-opacity="1"><g transform="translate(186.99356, 234.005317)"><g><path d="M 5.703125 0.296875 C 4.734375 0.296875 3.953125 0.09375 3.359375 -0.3125 C 2.773438 -0.726562 2.351562 -1.300781 2.09375 -2.03125 C 1.832031 -2.757812 1.703125 -3.59375 1.703125 -4.53125 L 1.703125 -12.5 L 3.828125 -12.5 L 3.828125 -5.03125 C 3.828125 -4.101562 3.929688 -3.390625 4.140625 -2.890625 C 4.359375 -2.390625 4.664062 -2.039062 5.0625 -1.84375 C 5.457031 -1.65625 5.914062 -1.5625 6.4375 -1.5625 C 7.425781 -1.5625 8.203125 -1.90625 8.765625 -2.59375 C 9.328125 -3.289062 9.609375 -4.300781 9.609375 -5.625 L 9.609375 -12.5 L 11.71875 -12.5 L 11.71875 0 L 10.125 0 L 9.609375 -1.8125 C 9.253906 -1.207031 8.773438 -0.703125 8.171875 -0.296875 C 7.566406 0.0976562 6.742188 0.296875 5.703125 0.296875 Z M 5.703125 0.296875 "/></g></g></g><g fill="#ffffff" fill-opacity="1"><g transform="translate(200.466872, 234.005317)"><g><path d="M 5.5625 0 C 4.769531 0 4.160156 -0.078125 3.734375 -0.234375 C 3.304688 -0.398438 3.007812 -0.707031 2.84375 -1.15625 C 2.6875 -1.601562 2.609375 -2.257812 2.609375 -3.125 L 2.609375 -10.78125 L 0.5 -10.78125 L 0.5 -12.46875 L 2.609375 -12.46875 L 2.609375 -15.609375 L 4.71875 -15.609375 L 4.71875 -12.46875 L 7.140625 -12.46875 L 7.140625 -10.78125 L 4.71875 -10.78125 L 4.71875 -3.46875 C 4.71875 -2.832031 4.78125 -2.40625 4.90625 -2.1875 C 5.039062 -1.96875 5.410156 -1.859375 6.015625 -1.859375 L 7.140625 -1.859375 L 7.140625 0 Z M 5.5625 0 "/></g></g></g><g fill="#ffffff" fill-opacity="1"><g transform="translate(208.611185, 234.005317)"><g><path d="M 3.921875 -14.828125 C 3.503906 -14.828125 3.140625 -14.984375 2.828125 -15.296875 C 2.515625 -15.609375 2.359375 -15.984375 2.359375 -16.421875 C 2.359375 -16.859375 2.515625 -17.222656 2.828125 -17.515625 C 3.140625 -17.816406 3.503906 -17.96875 3.921875 -17.96875 C 4.359375 -17.96875 4.726562 -17.816406 5.03125 -17.515625 C 5.34375 -17.222656 5.5 -16.859375 5.5 -16.421875 C 5.5 -15.984375 5.34375 -15.609375 5.03125 -15.296875 C 4.726562 -14.984375 4.359375 -14.828125 3.921875 -14.828125 Z M 2.859375 0 L 2.859375 -10.78125 L 1.125 -10.78125 L 1.125 -12.46875 L 4.984375 -12.46875 L 4.984375 0 Z M 2.859375 0 "/></g></g></g><g fill="#ffffff" fill-opacity="1"><g transform="translate(215.59921, 234.005317)"><g><path d="M 6.9375 0.296875 C 6.21875 0.296875 5.503906 0.171875 4.796875 -0.078125 C 4.097656 -0.328125 3.457031 -0.710938 2.875 -1.234375 C 2.300781 -1.765625 1.835938 -2.441406 1.484375 -3.265625 C 1.128906 -4.085938 0.953125 -5.0625 0.953125 -6.1875 C 0.953125 -7.3125 1.128906 -8.28125 1.484375 -9.09375 C 1.835938 -9.914062 2.300781 -10.59375 2.875 -11.125 C 3.457031 -11.65625 4.097656 -12.046875 4.796875 -12.296875 C 5.503906 -12.546875 6.21875 -12.671875 6.9375 -12.671875 C 7.65625 -12.671875 8.367188 -12.546875 9.078125 -12.296875 C 9.796875 -12.046875 10.441406 -11.65625 11.015625 -11.125 C 11.597656 -10.59375 12.0625 -9.914062 12.40625 -9.09375 C 12.75 -8.28125 12.921875 -7.3125 12.921875 -6.1875 C 12.921875 -5.0625 12.75 -4.085938 12.40625 -3.265625 C 12.0625 -2.441406 11.597656 -1.765625 11.015625 -1.234375 C 10.441406 -0.710938 9.796875 -0.328125 9.078125 -0.078125 C 8.367188 0.171875 7.65625 0.296875 6.9375 0.296875 Z M 6.9375 -1.5625 C 7.539062 -1.5625 8.125 -1.722656 8.6875 -2.046875 C 9.257812 -2.378906 9.726562 -2.882812 10.09375 -3.5625 C 10.46875 -4.238281 10.65625 -5.113281 10.65625 -6.1875 C 10.65625 -7.257812 10.46875 -8.132812 10.09375 -8.8125 C 9.726562 -9.488281 9.257812 -9.988281 8.6875 -10.3125 C 8.125 -10.644531 7.539062 -10.8125 6.9375 -10.8125 C 6.351562 -10.8125 5.769531 -10.644531 5.1875 -10.3125 C 4.613281 -9.988281 4.140625 -9.488281 3.765625 -8.8125 C 3.398438 -8.132812 3.21875 -7.257812 3.21875 -6.1875 C 3.21875 -5.113281 3.398438 -4.238281 3.765625 -3.5625 C 4.140625 -2.882812 4.613281 -2.378906 5.1875 -2.046875 C 5.769531 -1.722656 6.351562 -1.5625 6.9375 -1.5625 Z M 6.9375 -1.5625 "/></g></g></g><g fill="#ffffff" fill-opacity="1"><g transform="translate(229.474701, 234.005317)"><g><path d="M 1.765625 0 L 1.765625 -12.46875 L 3.3125 -12.46875 L 3.875 -10.578125 C 4.226562 -11.171875 4.722656 -11.664062 5.359375 -12.0625 C 5.992188 -12.46875 6.835938 -12.671875 7.890625 -12.671875 C 9.398438 -12.671875 10.460938 -12.226562 11.078125 -11.34375 C 11.703125 -10.46875 12.015625 -9.316406 12.015625 -7.890625 L 12.015625 0 L 9.90625 0 L 9.90625 -7.265625 C 9.90625 -7.898438 9.84375 -8.488281 9.71875 -9.03125 C 9.601562 -9.582031 9.347656 -10.023438 8.953125 -10.359375 C 8.566406 -10.691406 7.972656 -10.859375 7.171875 -10.859375 C 6.140625 -10.859375 5.332031 -10.507812 4.75 -9.8125 C 4.164062 -9.125 3.875 -8.109375 3.875 -6.765625 L 3.875 0 Z M 1.765625 0 "/></g></g></g><g fill="#2538b4" fill-opacity="1"><g transform="translate(120.657623, 246.935696)"><g><path d="M 3.59375 0.140625 C 3.144531 0.140625 2.707031 0.0703125 2.28125 -0.0625 C 1.863281 -0.195312 1.492188 -0.40625 1.171875 -0.6875 C 0.859375 -0.96875 0.628906 -1.328125 0.484375 -1.765625 L 1.546875 -2.09375 C 1.640625 -1.800781 1.796875 -1.554688 2.015625 -1.359375 C 2.234375 -1.171875 2.484375 -1.03125 2.765625 -0.9375 C 3.054688 -0.851562 3.347656 -0.8125 3.640625 -0.8125 C 3.960938 -0.8125 4.269531 -0.863281 4.5625 -0.96875 C 4.851562 -1.070312 5.085938 -1.226562 5.265625 -1.4375 C 5.453125 -1.65625 5.546875 -1.929688 5.546875 -2.265625 C 5.546875 -2.585938 5.421875 -2.847656 5.171875 -3.046875 C 4.929688 -3.242188 4.515625 -3.414062 3.921875 -3.5625 L 2.890625 -3.796875 C 2.515625 -3.898438 2.144531 -4.03125 1.78125 -4.1875 C 1.425781 -4.351562 1.132812 -4.582031 0.90625 -4.875 C 0.675781 -5.175781 0.5625 -5.578125 0.5625 -6.078125 C 0.5625 -6.546875 0.703125 -6.941406 0.984375 -7.265625 C 1.273438 -7.585938 1.648438 -7.832031 2.109375 -8 C 2.566406 -8.164062 3.039062 -8.25 3.53125 -8.25 C 3.914062 -8.25 4.289062 -8.191406 4.65625 -8.078125 C 5.019531 -7.972656 5.347656 -7.8125 5.640625 -7.59375 C 5.941406 -7.375 6.175781 -7.085938 6.34375 -6.734375 L 5.3125 -6.4375 C 5.15625 -6.71875 4.90625 -6.929688 4.5625 -7.078125 C 4.21875 -7.222656 3.859375 -7.296875 3.484375 -7.296875 C 3.191406 -7.296875 2.910156 -7.25 2.640625 -7.15625 C 2.378906 -7.0625 2.160156 -6.921875 1.984375 -6.734375 C 1.816406 -6.546875 1.734375 -6.3125 1.734375 -6.03125 C 1.734375 -5.769531 1.8125 -5.554688 1.96875 -5.390625 C 2.125 -5.222656 2.332031 -5.09375 2.59375 -5 C 2.863281 -4.914062 3.15625 -4.835938 3.46875 -4.765625 L 4.359375 -4.5625 C 4.773438 -4.46875 5.160156 -4.332031 5.515625 -4.15625 C 5.878906 -3.988281 6.175781 -3.75 6.40625 -3.4375 C 6.632812 -3.132812 6.75 -2.722656 6.75 -2.203125 C 6.75 -1.835938 6.660156 -1.503906 6.484375 -1.203125 C 6.304688 -0.910156 6.066406 -0.664062 5.765625 -0.46875 C 5.460938 -0.269531 5.125 -0.117188 4.75 -0.015625 C 4.375 0.0859375 3.988281 0.140625 3.59375 0.140625 Z M 3.59375 0.140625 "/></g></g></g><g fill="#2538b4" fill-opacity="1"><g transform="translate(127.893401, 246.935696)"><g><path d="M 1.890625 -7.15625 C 1.691406 -7.15625 1.515625 -7.226562 1.359375 -7.375 C 1.210938 -7.53125 1.140625 -7.710938 1.140625 -7.921875 C 1.140625 -8.140625 1.210938 -8.320312 1.359375 -8.46875 C 1.515625 -8.613281 1.691406 -8.6875 1.890625 -8.6875 C 2.097656 -8.6875 2.273438 -8.613281 2.421875 -8.46875 C 2.578125 -8.320312 2.65625 -8.140625 2.65625 -7.921875 C 2.65625 -7.710938 2.578125 -7.53125 2.421875 -7.375 C 2.273438 -7.226562 2.097656 -7.15625 1.890625 -7.15625 Z M 1.390625 0 L 1.390625 -5.203125 L 0.546875 -5.203125 L 0.546875 -6.015625 L 2.40625 -6.015625 L 2.40625 0 Z M 1.390625 0 "/></g></g></g><g fill="#2538b4" fill-opacity="1"><g transform="translate(131.268481, 246.935696)"><g><path d="M 0.84375 0 L 0.84375 -6.015625 L 1.609375 -6.015625 L 1.875 -5.109375 C 2.039062 -5.390625 2.269531 -5.628906 2.5625 -5.828125 C 2.863281 -6.023438 3.234375 -6.125 3.671875 -6.125 C 4.140625 -6.125 4.515625 -6.03125 4.796875 -5.84375 C 5.078125 -5.65625 5.285156 -5.394531 5.421875 -5.0625 C 5.660156 -5.4375 5.953125 -5.707031 6.296875 -5.875 C 6.640625 -6.039062 7.019531 -6.125 7.4375 -6.125 C 8.132812 -6.125 8.632812 -5.910156 8.9375 -5.484375 C 9.238281 -5.054688 9.390625 -4.5 9.390625 -3.8125 L 9.390625 0 L 8.359375 0 L 8.359375 -3.515625 C 8.359375 -3.816406 8.328125 -4.097656 8.265625 -4.359375 C 8.210938 -4.628906 8.09375 -4.84375 7.90625 -5 C 7.726562 -5.164062 7.453125 -5.25 7.078125 -5.25 C 6.640625 -5.25 6.289062 -5.078125 6.03125 -4.734375 C 5.769531 -4.398438 5.640625 -3.910156 5.640625 -3.265625 L 5.640625 0 L 4.609375 0 L 4.609375 -3.515625 C 4.609375 -3.816406 4.578125 -4.097656 4.515625 -4.359375 C 4.460938 -4.628906 4.34375 -4.84375 4.15625 -5 C 3.976562 -5.164062 3.703125 -5.25 3.328125 -5.25 C 2.890625 -5.25 2.535156 -5.078125 2.265625 -4.734375 C 2.003906 -4.398438 1.875 -3.910156 1.875 -3.265625 L 1.875 0 Z M 0.84375 0 "/></g></g></g><g fill="#2538b4" fill-opacity="1"><g transform="translate(141.478705, 246.935696)"><g><path d="M 0.84375 1.953125 L 0.84375 -6.015625 L 1.59375 -6.015625 L 1.875 -5.078125 C 2.0625 -5.390625 2.316406 -5.640625 2.640625 -5.828125 C 2.960938 -6.023438 3.359375 -6.125 3.828125 -6.125 C 4.285156 -6.125 4.707031 -6 5.09375 -5.75 C 5.488281 -5.5 5.804688 -5.140625 6.046875 -4.671875 C 6.285156 -4.210938 6.40625 -3.648438 6.40625 -2.984375 C 6.40625 -2.328125 6.285156 -1.765625 6.046875 -1.296875 C 5.804688 -0.828125 5.488281 -0.46875 5.09375 -0.21875 C 4.707031 0.0195312 4.285156 0.140625 3.828125 0.140625 C 3.359375 0.140625 2.960938 0.046875 2.640625 -0.140625 C 2.316406 -0.328125 2.0625 -0.582031 1.875 -0.90625 L 1.875 1.953125 Z M 3.5625 -0.734375 C 4.070312 -0.734375 4.484375 -0.929688 4.796875 -1.328125 C 5.109375 -1.722656 5.265625 -2.273438 5.265625 -2.984375 C 5.265625 -3.703125 5.109375 -4.257812 4.796875 -4.65625 C 4.484375 -5.050781 4.070312 -5.25 3.5625 -5.25 C 3.039062 -5.25 2.625 -5.050781 2.3125 -4.65625 C 2 -4.257812 1.84375 -3.703125 1.84375 -2.984375 C 1.84375 -2.273438 2 -1.722656 2.3125 -1.328125 C 2.625 -0.929688 3.039062 -0.734375 3.5625 -0.734375 Z M 3.5625 -0.734375 "/></g></g></g><g fill="#2538b4" fill-opacity="1"><g transform="translate(148.350263, 246.935696)"><g><path d="M 2.265625 0 C 1.890625 0 1.597656 -0.0351562 1.390625 -0.109375 C 1.179688 -0.191406 1.035156 -0.34375 0.953125 -0.5625 C 0.878906 -0.78125 0.84375 -1.09375 0.84375 -1.5 L 0.84375 -8.09375 L 1.875 -8.09375 L 1.875 -1.671875 C 1.875 -1.367188 1.90625 -1.160156 1.96875 -1.046875 C 2.03125 -0.941406 2.203125 -0.890625 2.484375 -0.890625 L 2.71875 -0.890625 L 2.71875 0 Z M 2.265625 0 "/></g></g></g><g fill="#2538b4" fill-opacity="1"><g transform="translate(151.251855, 246.935696)"><g><path d="M 3.40625 0.140625 C 2.78125 0.140625 2.25 0.00390625 1.8125 -0.265625 C 1.375 -0.546875 1.039062 -0.921875 0.8125 -1.390625 C 0.582031 -1.867188 0.46875 -2.40625 0.46875 -3 C 0.46875 -3.632812 0.59375 -4.1875 0.84375 -4.65625 C 1.101562 -5.125 1.453125 -5.484375 1.890625 -5.734375 C 2.335938 -5.992188 2.835938 -6.125 3.390625 -6.125 C 3.867188 -6.125 4.289062 -6.023438 4.65625 -5.828125 C 5.019531 -5.640625 5.316406 -5.382812 5.546875 -5.0625 C 5.785156 -4.75 5.957031 -4.390625 6.0625 -3.984375 C 6.175781 -3.578125 6.21875 -3.160156 6.1875 -2.734375 L 1.546875 -2.734375 C 1.566406 -2.234375 1.679688 -1.835938 1.890625 -1.546875 C 2.097656 -1.253906 2.34375 -1.046875 2.625 -0.921875 C 2.90625 -0.804688 3.164062 -0.75 3.40625 -0.75 C 3.75 -0.75 4.035156 -0.800781 4.265625 -0.90625 C 4.492188 -1.019531 4.675781 -1.164062 4.8125 -1.34375 L 5.796875 -1.0625 C 5.578125 -0.707031 5.265625 -0.414062 4.859375 -0.1875 C 4.460938 0.03125 3.976562 0.140625 3.40625 0.140625 Z M 1.5625 -3.546875 L 5.109375 -3.546875 C 5.109375 -3.828125 5.035156 -4.097656 4.890625 -4.359375 C 4.753906 -4.617188 4.554688 -4.832031 4.296875 -5 C 4.046875 -5.164062 3.742188 -5.25 3.390625 -5.25 C 3.085938 -5.25 2.800781 -5.191406 2.53125 -5.078125 C 2.269531 -4.960938 2.050781 -4.78125 1.875 -4.53125 C 1.695312 -4.28125 1.59375 -3.953125 1.5625 -3.546875 Z M 1.5625 -3.546875 "/></g></g></g><g fill="#2538b4" fill-opacity="1"><g transform="translate(157.795621, 246.935696)"><g/></g></g><g fill="#2538b4" fill-opacity="1"><g transform="translate(161.194985, 246.935696)"><g><path d="M 2.53125 0.140625 C 2.15625 0.140625 1.804688 0.0703125 1.484375 -0.0625 C 1.171875 -0.195312 0.921875 -0.394531 0.734375 -0.65625 C 0.554688 -0.914062 0.46875 -1.226562 0.46875 -1.59375 C 0.46875 -2.070312 0.632812 -2.445312 0.96875 -2.71875 C 1.300781 -2.988281 1.769531 -3.195312 2.375 -3.34375 C 2.988281 -3.5 3.707031 -3.625 4.53125 -3.71875 C 4.539062 -4.226562 4.4375 -4.617188 4.21875 -4.890625 C 4 -5.171875 3.648438 -5.3125 3.171875 -5.3125 C 2.804688 -5.3125 2.507812 -5.226562 2.28125 -5.0625 C 2.050781 -4.894531 1.898438 -4.664062 1.828125 -4.375 L 0.84375 -4.65625 C 1.007812 -5.125 1.300781 -5.484375 1.71875 -5.734375 C 2.132812 -5.992188 2.613281 -6.125 3.15625 -6.125 C 3.988281 -6.125 4.597656 -5.925781 4.984375 -5.53125 C 5.367188 -5.132812 5.5625 -4.515625 5.5625 -3.671875 L 5.5625 -2.265625 C 5.5625 -1.765625 5.582031 -1.332031 5.625 -0.96875 C 5.664062 -0.601562 5.710938 -0.28125 5.765625 0 L 4.828125 0 L 4.59375 -0.828125 C 4.414062 -0.523438 4.160156 -0.285156 3.828125 -0.109375 C 3.492188 0.0546875 3.0625 0.140625 2.53125 0.140625 Z M 2.75 -0.671875 C 3.070312 -0.671875 3.375 -0.722656 3.65625 -0.828125 C 3.9375 -0.941406 4.164062 -1.132812 4.34375 -1.40625 C 4.519531 -1.6875 4.609375 -2.0625 4.609375 -2.53125 L 4.609375 -2.90625 C 3.992188 -2.832031 3.457031 -2.75 3 -2.65625 C 2.550781 -2.570312 2.203125 -2.445312 1.953125 -2.28125 C 1.710938 -2.113281 1.59375 -1.890625 1.59375 -1.609375 C 1.59375 -1.328125 1.691406 -1.097656 1.890625 -0.921875 C 2.097656 -0.753906 2.382812 -0.671875 2.75 -0.671875 Z M 2.75 -0.671875 "/></g></g></g><g fill="#2538b4" fill-opacity="1"><g transform="translate(167.580926, 246.935696)"><g><path d="M 0.84375 0 L 0.84375 -6.015625 L 1.609375 -6.015625 L 1.875 -5.109375 C 2.039062 -5.390625 2.273438 -5.628906 2.578125 -5.828125 C 2.890625 -6.023438 3.300781 -6.125 3.8125 -6.125 C 4.539062 -6.125 5.050781 -5.910156 5.34375 -5.484375 C 5.644531 -5.054688 5.796875 -4.5 5.796875 -3.8125 L 5.796875 0 L 4.78125 0 L 4.78125 -3.515625 C 4.78125 -3.816406 4.75 -4.097656 4.6875 -4.359375 C 4.632812 -4.628906 4.515625 -4.84375 4.328125 -5 C 4.140625 -5.164062 3.847656 -5.25 3.453125 -5.25 C 2.960938 -5.25 2.578125 -5.078125 2.296875 -4.734375 C 2.015625 -4.398438 1.875 -3.910156 1.875 -3.265625 L 1.875 0 Z M 0.84375 0 "/></g></g></g><g fill="#2538b4" fill-opacity="1"><g transform="translate(174.209675, 246.935696)"><g><path d="M 3.046875 0.140625 C 2.597656 0.140625 2.171875 0.0195312 1.765625 -0.21875 C 1.367188 -0.46875 1.050781 -0.820312 0.8125 -1.28125 C 0.582031 -1.75 0.46875 -2.316406 0.46875 -2.984375 C 0.46875 -3.648438 0.582031 -4.210938 0.8125 -4.671875 C 1.050781 -5.140625 1.367188 -5.5 1.765625 -5.75 C 2.171875 -6 2.597656 -6.125 3.046875 -6.125 C 3.523438 -6.125 3.925781 -6.023438 4.25 -5.828125 C 4.570312 -5.640625 4.820312 -5.390625 5 -5.078125 L 5 -8.109375 L 6.015625 -8.109375 L 6.015625 -2.265625 C 6.015625 -2.066406 6.019531 -1.769531 6.03125 -1.375 C 6.050781 -0.988281 6.117188 -0.53125 6.234375 0 L 5.265625 0 L 5 -0.90625 C 4.820312 -0.582031 4.570312 -0.328125 4.25 -0.140625 C 3.925781 0.046875 3.523438 0.140625 3.046875 0.140625 Z M 3.3125 -0.734375 C 3.832031 -0.734375 4.25 -0.929688 4.5625 -1.328125 C 4.875 -1.722656 5.03125 -2.273438 5.03125 -2.984375 C 5.03125 -3.703125 4.875 -4.257812 4.5625 -4.65625 C 4.25 -5.050781 3.832031 -5.25 3.3125 -5.25 C 2.789062 -5.25 2.375 -5.050781 2.0625 -4.65625 C 1.757812 -4.257812 1.609375 -3.703125 1.609375 -2.984375 C 1.609375 -2.273438 1.757812 -1.722656 2.0625 -1.328125 C 2.375 -0.929688 2.789062 -0.734375 3.3125 -0.734375 Z M 3.3125 -0.734375 "/></g></g></g><g fill="#2538b4" fill-opacity="1"><g transform="translate(181.056961, 246.935696)"><g/></g></g><g fill="#2538b4" fill-opacity="1"><g transform="translate(184.456325, 246.935696)"><g><path d="M 0.921875 0 L 0.921875 -8.109375 L 6.421875 -8.109375 L 6.421875 -7.125 L 2.0625 -7.125 L 2.0625 -4.65625 L 5.28125 -4.65625 L 5.28125 -3.671875 L 2.0625 -3.671875 L 2.0625 -0.984375 L 6.421875 -0.984375 L 6.421875 0 Z M 0.921875 0 "/></g></g></g><g fill="#2538b4" fill-opacity="1"><g transform="translate(191.340026, 246.935696)"><g><path d="M 1.203125 0 L 1.203125 -5.203125 L 0.1875 -5.203125 L 0.1875 -6.015625 L 1.203125 -6.015625 L 1.203125 -6.921875 C 1.203125 -7.335938 1.238281 -7.664062 1.3125 -7.90625 C 1.394531 -8.144531 1.554688 -8.316406 1.796875 -8.421875 C 2.035156 -8.523438 2.375 -8.578125 2.8125 -8.578125 L 3.46875 -8.578125 L 3.46875 -7.703125 L 2.84375 -7.703125 C 2.582031 -7.703125 2.410156 -7.648438 2.328125 -7.546875 C 2.253906 -7.441406 2.21875 -7.238281 2.21875 -6.9375 L 2.21875 -6.015625 L 3.46875 -6.015625 L 3.46875 -5.203125 L 2.21875 -5.203125 L 2.21875 0 Z M 1.203125 0 "/></g></g></g><g fill="#2538b4" fill-opacity="1"><g transform="translate(195.11574, 246.935696)"><g><path d="M 1.203125 0 L 1.203125 -5.203125 L 0.1875 -5.203125 L 0.1875 -6.015625 L 1.203125 -6.015625 L 1.203125 -6.921875 C 1.203125 -7.335938 1.238281 -7.664062 1.3125 -7.90625 C 1.394531 -8.144531 1.554688 -8.316406 1.796875 -8.421875 C 2.035156 -8.523438 2.375 -8.578125 2.8125 -8.578125 L 3.46875 -8.578125 L 3.46875 -7.703125 L 2.84375 -7.703125 C 2.582031 -7.703125 2.410156 -7.648438 2.328125 -7.546875 C 2.253906 -7.441406 2.21875 -7.238281 2.21875 -6.9375 L 2.21875 -6.015625 L 3.46875 -6.015625 L 3.46875 -5.203125 L 2.21875 -5.203125 L 2.21875 0 Z M 1.203125 0 "/></g></g></g><g fill="#2538b4" fill-opacity="1"><g transform="translate(198.891455, 246.935696)"><g><path d="M 3.40625 0.140625 C 2.78125 0.140625 2.25 0.00390625 1.8125 -0.265625 C 1.375 -0.546875 1.039062 -0.921875 0.8125 -1.390625 C 0.582031 -1.867188 0.46875 -2.40625 0.46875 -3 C 0.46875 -3.632812 0.59375 -4.1875 0.84375 -4.65625 C 1.101562 -5.125 1.453125 -5.484375 1.890625 -5.734375 C 2.335938 -5.992188 2.835938 -6.125 3.390625 -6.125 C 3.867188 -6.125 4.289062 -6.023438 4.65625 -5.828125 C 5.019531 -5.640625 5.316406 -5.382812 5.546875 -5.0625 C 5.785156 -4.75 5.957031 -4.390625 6.0625 -3.984375 C 6.175781 -3.578125 6.21875 -3.160156 6.1875 -2.734375 L 1.546875 -2.734375 C 1.566406 -2.234375 1.679688 -1.835938 1.890625 -1.546875 C 2.097656 -1.253906 2.34375 -1.046875 2.625 -0.921875 C 2.90625 -0.804688 3.164062 -0.75 3.40625 -0.75 C 3.75 -0.75 4.035156 -0.800781 4.265625 -0.90625 C 4.492188 -1.019531 4.675781 -1.164062 4.8125 -1.34375 L 5.796875 -1.0625 C 5.578125 -0.707031 5.265625 -0.414062 4.859375 -0.1875 C 4.460938 0.03125 3.976562 0.140625 3.40625 0.140625 Z M 1.5625 -3.546875 L 5.109375 -3.546875 C 5.109375 -3.828125 5.035156 -4.097656 4.890625 -4.359375 C 4.753906 -4.617188 4.554688 -4.832031 4.296875 -5 C 4.046875 -5.164062 3.742188 -5.25 3.390625 -5.25 C 3.085938 -5.25 2.800781 -5.191406 2.53125 -5.078125 C 2.269531 -4.960938 2.050781 -4.78125 1.875 -4.53125 C 1.695312 -4.28125 1.59375 -3.953125 1.5625 -3.546875 Z M 1.5625 -3.546875 "/></g></g></g><g fill="#2538b4" fill-opacity="1"><g transform="translate(205.435221, 246.935696)"><g><path d="M 3.265625 0.140625 C 2.691406 0.140625 2.191406 0.00390625 1.765625 -0.265625 C 1.347656 -0.535156 1.023438 -0.90625 0.796875 -1.375 C 0.578125 -1.84375 0.46875 -2.378906 0.46875 -2.984375 C 0.46875 -3.585938 0.582031 -4.125 0.8125 -4.59375 C 1.050781 -5.070312 1.390625 -5.445312 1.828125 -5.71875 C 2.265625 -5.988281 2.78125 -6.125 3.375 -6.125 C 3.914062 -6.125 4.378906 -5.988281 4.765625 -5.71875 C 5.160156 -5.445312 5.453125 -5.128906 5.640625 -4.765625 L 4.703125 -4.421875 C 4.578125 -4.660156 4.390625 -4.851562 4.140625 -5 C 3.890625 -5.144531 3.609375 -5.21875 3.296875 -5.21875 C 3.003906 -5.21875 2.722656 -5.140625 2.453125 -4.984375 C 2.179688 -4.828125 1.960938 -4.582031 1.796875 -4.25 C 1.640625 -3.925781 1.5625 -3.507812 1.5625 -3 C 1.5625 -2.5 1.644531 -2.078125 1.8125 -1.734375 C 1.976562 -1.398438 2.191406 -1.148438 2.453125 -0.984375 C 2.722656 -0.828125 3.003906 -0.75 3.296875 -0.75 C 3.628906 -0.75 3.921875 -0.820312 4.171875 -0.96875 C 4.421875 -1.125 4.609375 -1.316406 4.734375 -1.546875 L 5.671875 -1.203125 C 5.441406 -0.816406 5.113281 -0.492188 4.6875 -0.234375 C 4.269531 0.015625 3.796875 0.140625 3.265625 0.140625 Z M 3.265625 0.140625 "/></g></g></g><g fill="#2538b4" fill-opacity="1"><g transform="translate(211.50551, 246.935696)"><g><path d="M 2.6875 0 C 2.300781 0 2.003906 -0.0351562 1.796875 -0.109375 C 1.597656 -0.191406 1.457031 -0.34375 1.375 -0.5625 C 1.300781 -0.78125 1.265625 -1.09375 1.265625 -1.5 L 1.265625 -5.203125 L 0.25 -5.203125 L 0.25 -6.015625 L 1.265625 -6.015625 L 1.265625 -7.546875 L 2.28125 -7.546875 L 2.28125 -6.015625 L 3.453125 -6.015625 L 3.453125 -5.203125 L 2.28125 -5.203125 L 2.28125 -1.671875 C 2.28125 -1.367188 2.3125 -1.160156 2.375 -1.046875 C 2.4375 -0.941406 2.613281 -0.890625 2.90625 -0.890625 L 3.453125 -0.890625 L 3.453125 0 Z M 2.6875 0 "/></g></g></g><g fill="#2538b4" fill-opacity="1"><g transform="translate(215.43905, 246.935696)"><g><path d="M 1.890625 -7.15625 C 1.691406 -7.15625 1.515625 -7.226562 1.359375 -7.375 C 1.210938 -7.53125 1.140625 -7.710938 1.140625 -7.921875 C 1.140625 -8.140625 1.210938 -8.320312 1.359375 -8.46875 C 1.515625 -8.613281 1.691406 -8.6875 1.890625 -8.6875 C 2.097656 -8.6875 2.273438 -8.613281 2.421875 -8.46875 C 2.578125 -8.320312 2.65625 -8.140625 2.65625 -7.921875 C 2.65625 -7.710938 2.578125 -7.53125 2.421875 -7.375 C 2.273438 -7.226562 2.097656 -7.15625 1.890625 -7.15625 Z M 1.390625 0 L 1.390625 -5.203125 L 0.546875 -5.203125 L 0.546875 -6.015625 L 2.40625 -6.015625 L 2.40625 0 Z M 1.390625 0 "/></g></g></g><g fill="#2538b4" fill-opacity="1"><g transform="translate(218.81413, 246.935696)"><g><path d="M 2.15625 0 L 0 -6.015625 L 1.109375 -6.015625 L 2.6875 -1.328125 L 4.25 -6.015625 L 5.359375 -6.015625 L 3.203125 0 Z M 2.15625 0 "/></g></g></g><g fill="#2538b4" fill-opacity="1"><g transform="translate(224.168122, 246.935696)"><g><path d="M 3.40625 0.140625 C 2.78125 0.140625 2.25 0.00390625 1.8125 -0.265625 C 1.375 -0.546875 1.039062 -0.921875 0.8125 -1.390625 C 0.582031 -1.867188 0.46875 -2.40625 0.46875 -3 C 0.46875 -3.632812 0.59375 -4.1875 0.84375 -4.65625 C 1.101562 -5.125 1.453125 -5.484375 1.890625 -5.734375 C 2.335938 -5.992188 2.835938 -6.125 3.390625 -6.125 C 3.867188 -6.125 4.289062 -6.023438 4.65625 -5.828125 C 5.019531 -5.640625 5.316406 -5.382812 5.546875 -5.0625 C 5.785156 -4.75 5.957031 -4.390625 6.0625 -3.984375 C 6.175781 -3.578125 6.21875 -3.160156 6.1875 -2.734375 L 1.546875 -2.734375 C 1.566406 -2.234375 1.679688 -1.835938 1.890625 -1.546875 C 2.097656 -1.253906 2.34375 -1.046875 2.625 -0.921875 C 2.90625 -0.804688 3.164062 -0.75 3.40625 -0.75 C 3.75 -0.75 4.035156 -0.800781 4.265625 -0.90625 C 4.492188 -1.019531 4.675781 -1.164062 4.8125 -1.34375 L 5.796875 -1.0625 C 5.578125 -0.707031 5.265625 -0.414062 4.859375 -0.1875 C 4.460938 0.03125 3.976562 0.140625 3.40625 0.140625 Z M 1.5625 -3.546875 L 5.109375 -3.546875 C 5.109375 -3.828125 5.035156 -4.097656 4.890625 -4.359375 C 4.753906 -4.617188 4.554688 -4.832031 4.296875 -5 C 4.046875 -5.164062 3.742188 -5.25 3.390625 -5.25 C 3.085938 -5.25 2.800781 -5.191406 2.53125 -5.078125 C 2.269531 -4.960938 2.050781 -4.78125 1.875 -4.53125 C 1.695312 -4.28125 1.59375 -3.953125 1.5625 -3.546875 Z M 1.5625 -3.546875 "/></g></g></g><g fill="#2538b4" fill-opacity="1"><g transform="translate(230.711888, 246.935696)"><g/></g></g><g fill="#2538b4" fill-opacity="1"><g transform="translate(234.111252, 246.935696)"><g><path d="M 3.59375 0.140625 C 3.144531 0.140625 2.707031 0.0703125 2.28125 -0.0625 C 1.863281 -0.195312 1.492188 -0.40625 1.171875 -0.6875 C 0.859375 -0.96875 0.628906 -1.328125 0.484375 -1.765625 L 1.546875 -2.09375 C 1.640625 -1.800781 1.796875 -1.554688 2.015625 -1.359375 C 2.234375 -1.171875 2.484375 -1.03125 2.765625 -0.9375 C 3.054688 -0.851562 3.347656 -0.8125 3.640625 -0.8125 C 3.960938 -0.8125 4.269531 -0.863281 4.5625 -0.96875 C 4.851562 -1.070312 5.085938 -1.226562 5.265625 -1.4375 C 5.453125 -1.65625 5.546875 -1.929688 5.546875 -2.265625 C 5.546875 -2.585938 5.421875 -2.847656 5.171875 -3.046875 C 4.929688 -3.242188 4.515625 -3.414062 3.921875 -3.5625 L 2.890625 -3.796875 C 2.515625 -3.898438 2.144531 -4.03125 1.78125 -4.1875 C 1.425781 -4.351562 1.132812 -4.582031 0.90625 -4.875 C 0.675781 -5.175781 0.5625 -5.578125 0.5625 -6.078125 C 0.5625 -6.546875 0.703125 -6.941406 0.984375 -7.265625 C 1.273438 -7.585938 1.648438 -7.832031 2.109375 -8 C 2.566406 -8.164062 3.039062 -8.25 3.53125 -8.25 C 3.914062 -8.25 4.289062 -8.191406 4.65625 -8.078125 C 5.019531 -7.972656 5.347656 -7.8125 5.640625 -7.59375 C 5.941406 -7.375 6.175781 -7.085938 6.34375 -6.734375 L 5.3125 -6.4375 C 5.15625 -6.71875 4.90625 -6.929688 4.5625 -7.078125 C 4.21875 -7.222656 3.859375 -7.296875 3.484375 -7.296875 C 3.191406 -7.296875 2.910156 -7.25 2.640625 -7.15625 C 2.378906 -7.0625 2.160156 -6.921875 1.984375 -6.734375 C 1.816406 -6.546875 1.734375 -6.3125 1.734375 -6.03125 C 1.734375 -5.769531 1.8125 -5.554688 1.96875 -5.390625 C 2.125 -5.222656 2.332031 -5.09375 2.59375 -5 C 2.863281 -4.914062 3.15625 -4.835938 3.46875 -4.765625 L 4.359375 -4.5625 C 4.773438 -4.46875 5.160156 -4.332031 5.515625 -4.15625 C 5.878906 -3.988281 6.175781 -3.75 6.40625 -3.4375 C 6.632812 -3.132812 6.75 -2.722656 6.75 -2.203125 C 6.75 -1.835938 6.660156 -1.503906 6.484375 -1.203125 C 6.304688 -0.910156 6.066406 -0.664062 5.765625 -0.46875 C 5.460938 -0.269531 5.125 -0.117188 4.75 -0.015625 C 4.375 0.0859375 3.988281 0.140625 3.59375 0.140625 Z M 3.59375 0.140625 "/></g></g></g><g fill="#2538b4" fill-opacity="1"><g transform="translate(241.34703, 246.935696)"><g><path d="M 3.34375 0.140625 C 3 0.140625 2.65625 0.0820312 2.3125 -0.03125 C 1.976562 -0.15625 1.671875 -0.34375 1.390625 -0.59375 C 1.109375 -0.851562 0.882812 -1.179688 0.71875 -1.578125 C 0.550781 -1.972656 0.46875 -2.441406 0.46875 -2.984375 C 0.46875 -3.523438 0.550781 -3.992188 0.71875 -4.390625 C 0.882812 -4.785156 1.109375 -5.109375 1.390625 -5.359375 C 1.671875 -5.617188 1.976562 -5.8125 2.3125 -5.9375 C 2.65625 -6.0625 3 -6.125 3.34375 -6.125 C 3.695312 -6.125 4.046875 -6.0625 4.390625 -5.9375 C 4.734375 -5.8125 5.046875 -5.617188 5.328125 -5.359375 C 5.609375 -5.109375 5.828125 -4.785156 5.984375 -4.390625 C 6.148438 -3.992188 6.234375 -3.523438 6.234375 -2.984375 C 6.234375 -2.441406 6.148438 -1.972656 5.984375 -1.578125 C 5.828125 -1.179688 5.609375 -0.851562 5.328125 -0.59375 C 5.046875 -0.34375 4.734375 -0.15625 4.390625 -0.03125 C 4.046875 0.0820312 3.695312 0.140625 3.34375 0.140625 Z M 3.34375 -0.75 C 3.632812 -0.75 3.914062 -0.828125 4.1875 -0.984375 C 4.46875 -1.140625 4.695312 -1.378906 4.875 -1.703125 C 5.050781 -2.035156 5.140625 -2.460938 5.140625 -2.984375 C 5.140625 -3.503906 5.050781 -3.925781 4.875 -4.25 C 4.695312 -4.582031 4.46875 -4.828125 4.1875 -4.984375 C 3.914062 -5.140625 3.632812 -5.21875 3.34375 -5.21875 C 3.0625 -5.21875 2.78125 -5.140625 2.5 -4.984375 C 2.226562 -4.828125 2 -4.582031 1.8125 -4.25 C 1.632812 -3.925781 1.546875 -3.503906 1.546875 -2.984375 C 1.546875 -2.460938 1.632812 -2.035156 1.8125 -1.703125 C 2 -1.378906 2.226562 -1.140625 2.5 -0.984375 C 2.78125 -0.828125 3.0625 -0.75 3.34375 -0.75 Z M 3.34375 -0.75 "/></g></g></g><g fill="#2538b4" fill-opacity="1"><g transform="translate(248.048621, 246.935696)"><g><path d="M 2.265625 0 C 1.890625 0 1.597656 -0.0351562 1.390625 -0.109375 C 1.179688 -0.191406 1.035156 -0.34375 0.953125 -0.5625 C 0.878906 -0.78125 0.84375 -1.09375 0.84375 -1.5 L 0.84375 -8.09375 L 1.875 -8.09375 L 1.875 -1.671875 C 1.875 -1.367188 1.90625 -1.160156 1.96875 -1.046875 C 2.03125 -0.941406 2.203125 -0.890625 2.484375 -0.890625 L 2.71875 -0.890625 L 2.71875 0 Z M 2.265625 0 "/></g></g></g><g fill="#2538b4" fill-opacity="1"><g transform="translate(250.950213, 246.935696)"><g><path d="M 2.75 0.140625 C 2.28125 0.140625 1.90625 0.0390625 1.625 -0.15625 C 1.34375 -0.351562 1.140625 -0.625 1.015625 -0.96875 C 0.890625 -1.320312 0.828125 -1.726562 0.828125 -2.1875 L 0.828125 -6.03125 L 1.84375 -6.03125 L 1.84375 -2.421875 C 1.84375 -1.984375 1.894531 -1.640625 2 -1.390625 C 2.101562 -1.148438 2.25 -0.984375 2.4375 -0.890625 C 2.632812 -0.796875 2.859375 -0.75 3.109375 -0.75 C 3.585938 -0.75 3.960938 -0.914062 4.234375 -1.25 C 4.503906 -1.59375 4.640625 -2.082031 4.640625 -2.71875 L 4.640625 -6.03125 L 5.65625 -6.03125 L 5.65625 0 L 4.890625 0 L 4.640625 -0.875 C 4.460938 -0.582031 4.226562 -0.335938 3.9375 -0.140625 C 3.65625 0.046875 3.257812 0.140625 2.75 0.140625 Z M 2.75 0.140625 "/></g></g></g><g fill="#2538b4" fill-opacity="1"><g transform="translate(257.457564, 246.935696)"><g><path d="M 2.6875 0 C 2.300781 0 2.003906 -0.0351562 1.796875 -0.109375 C 1.597656 -0.191406 1.457031 -0.34375 1.375 -0.5625 C 1.300781 -0.78125 1.265625 -1.09375 1.265625 -1.5 L 1.265625 -5.203125 L 0.25 -5.203125 L 0.25 -6.015625 L 1.265625 -6.015625 L 1.265625 -7.546875 L 2.28125 -7.546875 L 2.28125 -6.015625 L 3.453125 -6.015625 L 3.453125 -5.203125 L 2.28125 -5.203125 L 2.28125 -1.671875 C 2.28125 -1.367188 2.3125 -1.160156 2.375 -1.046875 C 2.4375 -0.941406 2.613281 -0.890625 2.90625 -0.890625 L 3.453125 -0.890625 L 3.453125 0 Z M 2.6875 0 "/></g></g></g><g fill="#2538b4" fill-opacity="1"><g transform="translate(261.391104, 246.935696)"><g><path d="M 1.890625 -7.15625 C 1.691406 -7.15625 1.515625 -7.226562 1.359375 -7.375 C 1.210938 -7.53125 1.140625 -7.710938 1.140625 -7.921875 C 1.140625 -8.140625 1.210938 -8.320312 1.359375 -8.46875 C 1.515625 -8.613281 1.691406 -8.6875 1.890625 -8.6875 C 2.097656 -8.6875 2.273438 -8.613281 2.421875 -8.46875 C 2.578125 -8.320312 2.65625 -8.140625 2.65625 -7.921875 C 2.65625 -7.710938 2.578125 -7.53125 2.421875 -7.375 C 2.273438 -7.226562 2.097656 -7.15625 1.890625 -7.15625 Z M 1.390625 0 L 1.390625 -5.203125 L 0.546875 -5.203125 L 0.546875 -6.015625 L 2.40625 -6.015625 L 2.40625 0 Z M 1.390625 0 "/></g></g></g><g fill="#2538b4" fill-opacity="1"><g transform="translate(264.766184, 246.935696)"><g><path d="M 3.34375 0.140625 C 3 0.140625 2.65625 0.0820312 2.3125 -0.03125 C 1.976562 -0.15625 1.671875 -0.34375 1.390625 -0.59375 C 1.109375 -0.851562 0.882812 -1.179688 0.71875 -1.578125 C 0.550781 -1.972656 0.46875 -2.441406 0.46875 -2.984375 C 0.46875 -3.523438 0.550781 -3.992188 0.71875 -4.390625 C 0.882812 -4.785156 1.109375 -5.109375 1.390625 -5.359375 C 1.671875 -5.617188 1.976562 -5.8125 2.3125 -5.9375 C 2.65625 -6.0625 3 -6.125 3.34375 -6.125 C 3.695312 -6.125 4.046875 -6.0625 4.390625 -5.9375 C 4.734375 -5.8125 5.046875 -5.617188 5.328125 -5.359375 C 5.609375 -5.109375 5.828125 -4.785156 5.984375 -4.390625 C 6.148438 -3.992188 6.234375 -3.523438 6.234375 -2.984375 C 6.234375 -2.441406 6.148438 -1.972656 5.984375 -1.578125 C 5.828125 -1.179688 5.609375 -0.851562 5.328125 -0.59375 C 5.046875 -0.34375 4.734375 -0.15625 4.390625 -0.03125 C 4.046875 0.0820312 3.695312 0.140625 3.34375 0.140625 Z M 3.34375 -0.75 C 3.632812 -0.75 3.914062 -0.828125 4.1875 -0.984375 C 4.46875 -1.140625 4.695312 -1.378906 4.875 -1.703125 C 5.050781 -2.035156 5.140625 -2.460938 5.140625 -2.984375 C 5.140625 -3.503906 5.050781 -3.925781 4.875 -4.25 C 4.695312 -4.582031 4.46875 -4.828125 4.1875 -4.984375 C 3.914062 -5.140625 3.632812 -5.21875 3.34375 -5.21875 C 3.0625 -5.21875 2.78125 -5.140625 2.5 -4.984375 C 2.226562 -4.828125 2 -4.582031 1.8125 -4.25 C 1.632812 -3.925781 1.546875 -3.503906 1.546875 -2.984375 C 1.546875 -2.460938 1.632812 -2.035156 1.8125 -1.703125 C 2 -1.378906 2.226562 -1.140625 2.5 -0.984375 C 2.78125 -0.828125 3.0625 -0.75 3.34375 -0.75 Z M 3.34375 -0.75 "/></g></g></g><g fill="#2538b4" fill-opacity="1"><g transform="translate(271.467775, 246.935696)"><g><path d="M 0.84375 0 L 0.84375 -6.015625 L 1.609375 -6.015625 L 1.875 -5.109375 C 2.039062 -5.390625 2.273438 -5.628906 2.578125 -5.828125 C 2.890625 -6.023438 3.300781 -6.125 3.8125 -6.125 C 4.539062 -6.125 5.050781 -5.910156 5.34375 -5.484375 C 5.644531 -5.054688 5.796875 -4.5 5.796875 -3.8125 L 5.796875 0 L 4.78125 0 L 4.78125 -3.515625 C 4.78125 -3.816406 4.75 -4.097656 4.6875 -4.359375 C 4.632812 -4.628906 4.515625 -4.84375 4.328125 -5 C 4.140625 -5.164062 3.847656 -5.25 3.453125 -5.25 C 2.960938 -5.25 2.578125 -5.078125 2.296875 -4.734375 C 2.015625 -4.398438 1.875 -3.910156 1.875 -3.265625 L 1.875 0 Z M 0.84375 0 "/></g></g></g><g fill="#2538b4" fill-opacity="1"><g transform="translate(278.096524, 246.935696)"><g><path d="M 2.90625 0.140625 C 2.550781 0.140625 2.207031 0.0859375 1.875 -0.015625 C 1.539062 -0.128906 1.238281 -0.296875 0.96875 -0.515625 C 0.707031 -0.734375 0.507812 -1.015625 0.375 -1.359375 L 1.359375 -1.71875 C 1.453125 -1.363281 1.648438 -1.109375 1.953125 -0.953125 C 2.253906 -0.796875 2.570312 -0.71875 2.90625 -0.71875 C 3.144531 -0.71875 3.367188 -0.753906 3.578125 -0.828125 C 3.796875 -0.898438 3.972656 -1.003906 4.109375 -1.140625 C 4.253906 -1.273438 4.328125 -1.429688 4.328125 -1.609375 C 4.328125 -1.941406 4.191406 -2.175781 3.921875 -2.3125 C 3.660156 -2.457031 3.347656 -2.566406 2.984375 -2.640625 L 2.15625 -2.796875 C 1.863281 -2.867188 1.585938 -2.960938 1.328125 -3.078125 C 1.078125 -3.191406 0.875 -3.359375 0.71875 -3.578125 C 0.570312 -3.796875 0.5 -4.085938 0.5 -4.453125 C 0.5 -4.816406 0.609375 -5.125 0.828125 -5.375 C 1.054688 -5.625 1.347656 -5.8125 1.703125 -5.9375 C 2.054688 -6.0625 2.425781 -6.125 2.8125 -6.125 C 3.289062 -6.125 3.742188 -6.023438 4.171875 -5.828125 C 4.597656 -5.628906 4.898438 -5.320312 5.078125 -4.90625 L 4.109375 -4.546875 C 4.003906 -4.796875 3.820312 -4.976562 3.5625 -5.09375 C 3.300781 -5.207031 3.03125 -5.265625 2.75 -5.265625 C 2.4375 -5.265625 2.15625 -5.195312 1.90625 -5.0625 C 1.65625 -4.925781 1.53125 -4.726562 1.53125 -4.46875 C 1.53125 -4.207031 1.632812 -4.019531 1.84375 -3.90625 C 2.0625 -3.789062 2.328125 -3.695312 2.640625 -3.625 L 3.4375 -3.46875 C 3.757812 -3.40625 4.066406 -3.3125 4.359375 -3.1875 C 4.648438 -3.070312 4.890625 -2.894531 5.078125 -2.65625 C 5.265625 -2.414062 5.359375 -2.082031 5.359375 -1.65625 C 5.359375 -1.269531 5.238281 -0.941406 5 -0.671875 C 4.769531 -0.410156 4.46875 -0.207031 4.09375 -0.0625 C 3.71875 0.0703125 3.320312 0.140625 2.90625 0.140625 Z M 2.90625 0.140625 "/></g></g></g><g fill="#2538b4" fill-opacity="1"><g transform="translate(283.814736, 246.935696)"><g/></g></g><g fill="#2538b4" fill-opacity="1"><g transform="translate(287.2141, 246.935696)"><g><path d="M 3.828125 0.140625 C 3.359375 0.140625 2.960938 0.046875 2.640625 -0.140625 C 2.316406 -0.328125 2.0625 -0.582031 1.875 -0.90625 L 1.609375 0 L 0.84375 0 L 0.84375 -8.109375 L 1.875 -8.109375 L 1.875 -5.078125 C 2.0625 -5.390625 2.316406 -5.640625 2.640625 -5.828125 C 2.960938 -6.023438 3.359375 -6.125 3.828125 -6.125 C 4.285156 -6.125 4.707031 -6 5.09375 -5.75 C 5.488281 -5.5 5.804688 -5.140625 6.046875 -4.671875 C 6.285156 -4.210938 6.40625 -3.648438 6.40625 -2.984375 C 6.40625 -2.316406 6.285156 -1.75 6.046875 -1.28125 C 5.804688 -0.820312 5.488281 -0.46875 5.09375 -0.21875 C 4.707031 0.0195312 4.285156 0.140625 3.828125 0.140625 Z M 3.5625 -0.734375 C 4.070312 -0.734375 4.484375 -0.929688 4.796875 -1.328125 C 5.109375 -1.722656 5.265625 -2.273438 5.265625 -2.984375 C 5.265625 -3.703125 5.109375 -4.257812 4.796875 -4.65625 C 4.484375 -5.050781 4.070312 -5.25 3.5625 -5.25 C 3.039062 -5.25 2.625 -5.050781 2.3125 -4.65625 C 2 -4.257812 1.84375 -3.703125 1.84375 -2.984375 C 1.84375 -2.273438 2 -1.722656 2.3125 -1.328125 C 2.625 -0.929688 3.039062 -0.734375 3.5625 -0.734375 Z M 3.5625 -0.734375 "/></g></g></g><g fill="#2538b4" fill-opacity="1"><g transform="translate(294.085659, 246.935696)"><g><path d="M 0.453125 1.953125 L 0.453125 1.0625 L 0.859375 1.0625 C 1.148438 1.0625 1.375 1.035156 1.53125 0.984375 C 1.6875 0.941406 1.8125 0.84375 1.90625 0.6875 C 2 0.539062 2.085938 0.316406 2.171875 0.015625 L 0 -6.015625 L 1.125 -6.015625 L 2.609375 -1.375 L 4.09375 -6.015625 L 5.203125 -6.015625 L 3.078125 0.265625 C 2.929688 0.691406 2.78125 1.03125 2.625 1.28125 C 2.476562 1.53125 2.28125 1.703125 2.03125 1.796875 C 1.78125 1.898438 1.425781 1.953125 0.96875 1.953125 Z M 0.453125 1.953125 "/></g></g></g><g fill="#2538b4" fill-opacity="1"><g transform="translate(299.293968, 246.935696)"><g/></g></g><g fill="#2538b4" fill-opacity="1"><g transform="translate(302.693332, 246.935696)"><g><path d="M 0.921875 0 L 0.921875 -8.109375 L 6.421875 -8.109375 L 6.421875 -7.125 L 2.0625 -7.125 L 2.0625 -4.65625 L 5.28125 -4.65625 L 5.28125 -3.671875 L 2.0625 -3.671875 L 2.0625 -0.984375 L 6.421875 -0.984375 L 6.421875 0 Z M 0.921875 0 "/></g></g></g><g fill="#2538b4" fill-opacity="1"><g transform="translate(309.577033, 246.935696)"><g><path d="M 0 0 L 2.203125 -3.09375 L 0.109375 -6.015625 L 1.3125 -6.015625 L 2.796875 -3.9375 L 4.28125 -6.015625 L 5.484375 -6.015625 L 3.40625 -3.09375 L 5.59375 0 L 4.390625 0 L 2.796875 -2.25 L 1.203125 0 Z M 0 0 "/></g></g></g><g fill="#2538b4" fill-opacity="1"><g transform="translate(315.173846, 246.935696)"><g><path d="M 0.84375 1.953125 L 0.84375 -6.015625 L 1.59375 -6.015625 L 1.875 -5.078125 C 2.0625 -5.390625 2.316406 -5.640625 2.640625 -5.828125 C 2.960938 -6.023438 3.359375 -6.125 3.828125 -6.125 C 4.285156 -6.125 4.707031 -6 5.09375 -5.75 C 5.488281 -5.5 5.804688 -5.140625 6.046875 -4.671875 C 6.285156 -4.210938 6.40625 -3.648438 6.40625 -2.984375 C 6.40625 -2.328125 6.285156 -1.765625 6.046875 -1.296875 C 5.804688 -0.828125 5.488281 -0.46875 5.09375 -0.21875 C 4.707031 0.0195312 4.285156 0.140625 3.828125 0.140625 C 3.359375 0.140625 2.960938 0.046875 2.640625 -0.140625 C 2.316406 -0.328125 2.0625 -0.582031 1.875 -0.90625 L 1.875 1.953125 Z M 3.5625 -0.734375 C 4.070312 -0.734375 4.484375 -0.929688 4.796875 -1.328125 C 5.109375 -1.722656 5.265625 -2.273438 5.265625 -2.984375 C 5.265625 -3.703125 5.109375 -4.257812 4.796875 -4.65625 C 4.484375 -5.050781 4.070312 -5.25 3.5625 -5.25 C 3.039062 -5.25 2.625 -5.050781 2.3125 -4.65625 C 2 -4.257812 1.84375 -3.703125 1.84375 -2.984375 C 1.84375 -2.273438 2 -1.722656 2.3125 -1.328125 C 2.625 -0.929688 3.039062 -0.734375 3.5625 -0.734375 Z M 3.5625 -0.734375 "/></g></g></g><g fill="#2538b4" fill-opacity="1"><g transform="translate(322.045405, 246.935696)"><g><path d="M 3.40625 0.140625 C 2.78125 0.140625 2.25 0.00390625 1.8125 -0.265625 C 1.375 -0.546875 1.039062 -0.921875 0.8125 -1.390625 C 0.582031 -1.867188 0.46875 -2.40625 0.46875 -3 C 0.46875 -3.632812 0.59375 -4.1875 0.84375 -4.65625 C 1.101562 -5.125 1.453125 -5.484375 1.890625 -5.734375 C 2.335938 -5.992188 2.835938 -6.125 3.390625 -6.125 C 3.867188 -6.125 4.289062 -6.023438 4.65625 -5.828125 C 5.019531 -5.640625 5.316406 -5.382812 5.546875 -5.0625 C 5.785156 -4.75 5.957031 -4.390625 6.0625 -3.984375 C 6.175781 -3.578125 6.21875 -3.160156 6.1875 -2.734375 L 1.546875 -2.734375 C 1.566406 -2.234375 1.679688 -1.835938 1.890625 -1.546875 C 2.097656 -1.253906 2.34375 -1.046875 2.625 -0.921875 C 2.90625 -0.804688 3.164062 -0.75 3.40625 -0.75 C 3.75 -0.75 4.035156 -0.800781 4.265625 -0.90625 C 4.492188 -1.019531 4.675781 -1.164062 4.8125 -1.34375 L 5.796875 -1.0625 C 5.578125 -0.707031 5.265625 -0.414062 4.859375 -0.1875 C 4.460938 0.03125 3.976562 0.140625 3.40625 0.140625 Z M 1.5625 -3.546875 L 5.109375 -3.546875 C 5.109375 -3.828125 5.035156 -4.097656 4.890625 -4.359375 C 4.753906 -4.617188 4.554688 -4.832031 4.296875 -5 C 4.046875 -5.164062 3.742188 -5.25 3.390625 -5.25 C 3.085938 -5.25 2.800781 -5.191406 2.53125 -5.078125 C 2.269531 -4.960938 2.050781 -4.78125 1.875 -4.53125 C 1.695312 -4.28125 1.59375 -3.953125 1.5625 -3.546875 Z M 1.5625 -3.546875 "/></g></g></g><g fill="#2538b4" fill-opacity="1"><g transform="translate(328.589159, 246.935696)"><g><path d="M 0.84375 0 L 0.84375 -6.015625 L 1.59375 -6.015625 L 1.921875 -4.90625 C 2.128906 -5.269531 2.410156 -5.5625 2.765625 -5.78125 C 3.128906 -6.007812 3.5625 -6.125 4.0625 -6.125 L 4.0625 -5.0625 C 4.007812 -5.0625 3.953125 -5.0625 3.890625 -5.0625 C 3.828125 -5.0625 3.769531 -5.054688 3.71875 -5.046875 C 3.03125 -4.992188 2.550781 -4.753906 2.28125 -4.328125 C 2.007812 -3.910156 1.875 -3.328125 1.875 -2.578125 L 1.875 0 Z M 0.84375 0 "/></g></g></g><g fill="#2538b4" fill-opacity="1"><g transform="translate(332.716951, 246.935696)"><g><path d="M 2.6875 0 C 2.300781 0 2.003906 -0.0351562 1.796875 -0.109375 C 1.597656 -0.191406 1.457031 -0.34375 1.375 -0.5625 C 1.300781 -0.78125 1.265625 -1.09375 1.265625 -1.5 L 1.265625 -5.203125 L 0.25 -5.203125 L 0.25 -6.015625 L 1.265625 -6.015625 L 1.265625 -7.546875 L 2.28125 -7.546875 L 2.28125 -6.015625 L 3.453125 -6.015625 L 3.453125 -5.203125 L 2.28125 -5.203125 L 2.28125 -1.671875 C 2.28125 -1.367188 2.3125 -1.160156 2.375 -1.046875 C 2.4375 -0.941406 2.613281 -0.890625 2.90625 -0.890625 L 3.453125 -0.890625 L 3.453125 0 Z M 2.6875 0 "/></g></g></g><g fill="#2538b4" fill-opacity="1"><g transform="translate(336.650491, 246.935696)"><g><path d="M 2.90625 0.140625 C 2.550781 0.140625 2.207031 0.0859375 1.875 -0.015625 C 1.539062 -0.128906 1.238281 -0.296875 0.96875 -0.515625 C 0.707031 -0.734375 0.507812 -1.015625 0.375 -1.359375 L 1.359375 -1.71875 C 1.453125 -1.363281 1.648438 -1.109375 1.953125 -0.953125 C 2.253906 -0.796875 2.570312 -0.71875 2.90625 -0.71875 C 3.144531 -0.71875 3.367188 -0.753906 3.578125 -0.828125 C 3.796875 -0.898438 3.972656 -1.003906 4.109375 -1.140625 C 4.253906 -1.273438 4.328125 -1.429688 4.328125 -1.609375 C 4.328125 -1.941406 4.191406 -2.175781 3.921875 -2.3125 C 3.660156 -2.457031 3.347656 -2.566406 2.984375 -2.640625 L 2.15625 -2.796875 C 1.863281 -2.867188 1.585938 -2.960938 1.328125 -3.078125 C 1.078125 -3.191406 0.875 -3.359375 0.71875 -3.578125 C 0.570312 -3.796875 0.5 -4.085938 0.5 -4.453125 C 0.5 -4.816406 0.609375 -5.125 0.828125 -5.375 C 1.054688 -5.625 1.347656 -5.8125 1.703125 -5.9375 C 2.054688 -6.0625 2.425781 -6.125 2.8125 -6.125 C 3.289062 -6.125 3.742188 -6.023438 4.171875 -5.828125 C 4.597656 -5.628906 4.898438 -5.320312 5.078125 -4.90625 L 4.109375 -4.546875 C 4.003906 -4.796875 3.820312 -4.976562 3.5625 -5.09375 C 3.300781 -5.207031 3.03125 -5.265625 2.75 -5.265625 C 2.4375 -5.265625 2.15625 -5.195312 1.90625 -5.0625 C 1.65625 -4.925781 1.53125 -4.726562 1.53125 -4.46875 C 1.53125 -4.207031 1.632812 -4.019531 1.84375 -3.90625 C 2.0625 -3.789062 2.328125 -3.695312 2.640625 -3.625 L 3.4375 -3.46875 C 3.757812 -3.40625 4.066406 -3.3125 4.359375 -3.1875 C 4.648438 -3.070312 4.890625 -2.894531 5.078125 -2.65625 C 5.265625 -2.414062 5.359375 -2.082031 5.359375 -1.65625 C 5.359375 -1.269531 5.238281 -0.941406 5 -0.671875 C 4.769531 -0.410156 4.46875 -0.207031 4.09375 -0.0625 C 3.71875 0.0703125 3.320312 0.140625 2.90625 0.140625 Z M 2.90625 0.140625 "/></g></g></g></svg>